<svg id="Calque_1" data-name="Calque 1" xmlns="http://www.w3.org/2000/svg" viewBox="0 0 85.2 79.33"><path d="M16.62,83.39H91.21a1.39,1.39,0,1,0,0-2.78h-6a1.37,1.37,0,0,0,0-.28c-2-10.26,1.69-16.7,1.73-16.76a1.5,1.5,0,0,0-2.32-1.86,24,24,0,0,0-4,4.85c1.23-9.41,5.12-15,5.17-15.06a1.5,1.5,0,0,0-2.24-2,43.37,43.37,0,0,0-6.26,7.33V32.57s0-.1,0-.15a3.94,3.94,0,0,0,2.55-3.67V19.83a3.91,3.91,0,0,0-2.54-3.65V11.73a1.39,1.39,0,1,0-2.78,0v4.45A3.9,3.9,0,0,0,72,19.83v8.92a3.92,3.92,0,0,0,2.55,3.67.77.77,0,0,0,0,.15V61.43s0,.09,0,.14a44.88,44.88,0,0,0-4.78,19H67c-2.4-13.55,3.83-22.18,3.89-22.26a1.5,1.5,0,0,0-2.22-2A32,32,0,0,0,65,60.42V54.65A3.9,3.9,0,0,0,67.51,51V42.08A3.91,3.91,0,0,0,65,38.42V34.07a1.39,1.39,0,1,0-2.78,0v4.35a3.91,3.91,0,0,0-2.53,3.66V51a3.9,3.9,0,0,0,2.53,3.65V64.77a33.1,33.1,0,0,0-2.55,6.29,24.22,24.22,0,0,0-2.11-4.33V36.46a3.92,3.92,0,0,0,2.53-3.66V23.88a3.92,3.92,0,0,0-2.53-3.65V15.88a1.39,1.39,0,0,0-2.78,0v4.35a3.91,3.91,0,0,0-2.54,3.65V32.8a3.91,3.91,0,0,0,2.54,3.66V63.07c-.4-.44-.82-.86-1.27-1.28a1.5,1.5,0,0,0-2.32,1.85c0,.07,3.71,6.43,1.74,16.77a.68.68,0,0,0,0,.2h-5c-2.82-15.68,4.62-29.12,4.69-29.25a1.5,1.5,0,0,0-.37-1.92,1.51,1.51,0,0,0-2,.08A43,43,0,0,0,39.37,65.89V48.31a3.91,3.91,0,0,0,2.53-3.66V35.73a3.9,3.9,0,0,0-2.53-3.65V27.73a1.39,1.39,0,1,0-2.78,0v4.35a3.91,3.91,0,0,0-2.54,3.65v8.92a3.91,3.91,0,0,0,2.54,3.66v19a38.48,38.48,0,0,0-5-5.49,1.5,1.5,0,0,0-2.32,1.85c0,.06,3.7,6.51,1.74,16.77a.68.68,0,0,0,0,.2H16.62a1.39,1.39,0,1,0,0,2.78ZM74.76,19.83a1.15,1.15,0,0,1,2.29,0v8.92a1.15,1.15,0,1,1-2.29,0ZM63.59,52.14A1.15,1.15,0,0,1,62.45,51V42.07a1.14,1.14,0,1,1,2.28,0V51A1.15,1.15,0,0,1,63.59,52.14ZM55,23.88a1.15,1.15,0,0,1,2.29,0V32.8a1.15,1.15,0,1,1-2.29,0ZM82.2,80.61H79.78a23.89,23.89,0,0,1,2-9.86A33.5,33.5,0,0,0,82.2,80.61ZM78.84,60a46.36,46.36,0,0,0-1.52,14.89,25.5,25.5,0,0,0-.54,5.69h-4A42.88,42.88,0,0,1,78.84,60ZM64,68a37.11,37.11,0,0,0,0,12.58H61.32c0-.32,0-.73,0-1.22A31.8,31.8,0,0,1,64,68Zm-7.67,2.8a24.19,24.19,0,0,1,2,8.56c0,.47,0,.88,0,1.22H55.91A33.65,33.65,0,0,0,56.3,70.83ZM44.88,80.61h-5.4a42.92,42.92,0,0,1,7-22A49.11,49.11,0,0,0,44.88,80.61ZM38,45.8a1.16,1.16,0,0,1-1.15-1.15V35.73a1.15,1.15,0,0,1,2.29,0v8.92A1.15,1.15,0,0,1,38,45.8ZM34.2,69.1a26.61,26.61,0,0,1,2.89,5.16,39.94,39.94,0,0,0-.61,6.35H34.06A32.84,32.84,0,0,0,34.2,69.1Z" transform="translate(-7.4 -10.34)"/><path d="M75.44,86.88H58.09a1.39,1.39,0,0,0,0,2.78H75.44a1.39,1.39,0,0,0,0-2.78Z" transform="translate(-7.4 -10.34)"/><path d="M32.68,86.88H8.79a1.39,1.39,0,1,0,0,2.78h23.9a1.39,1.39,0,0,0,0-2.78Z" transform="translate(-7.4 -10.34)"/><path d="M90.94,86.88H80.75a1.39,1.39,0,0,0,0,2.78H90.94a1.39,1.39,0,0,0,0-2.78Z" transform="translate(-7.4 -10.34)"/><path d="M8.79,83.39h3.08a1.39,1.39,0,1,0,0-2.78H8.79a1.39,1.39,0,1,0,0,2.78Z" transform="translate(-7.4 -10.34)"/></svg>