<?xml version="1.0" encoding="utf-8"?>
<!-- Generator: Adobe Illustrator 24.2.3, SVG Export Plug-In . SVG Version: 6.00 Build 0)  -->
<svg version="1.1" id="Calque_1" xmlns="http://www.w3.org/2000/svg" xmlns:xlink="http://www.w3.org/1999/xlink" x="0px" y="0px"
	 viewBox="0 0 612 792" enable-background="new 0 0 612 792" xml:space="preserve">
<rect x="24.478" y="30.739" fill="#FFFFFF" stroke="#000000" stroke-miterlimit="10" width="558.261" height="558.261"/>
<path display="none" fill="#FFFFFF" stroke="#000000" stroke-miterlimit="10" d="M528.83,591.057H76.129
	c-31.311,0-56.693-25.382-56.693-56.693V81.662c0-31.311,25.382-56.693,56.693-56.693H528.83c31.311,0,56.693,25.382,56.693,56.693
	v452.701C585.523,565.674,560.14,591.057,528.83,591.057z"/>
<g>
	<path fill="#46726B" d="M94.589,335.298c3.03,5.997,7.055,10.853,12.075,14.568c5.015,3.72,10.905,6.474,17.675,8.273
		c6.765,1.798,13.765,2.698,21,2.698c4.9,0,10.15-0.416,15.75-1.259c5.6-0.838,10.85-2.456,15.75-4.856
		c4.9-2.394,8.98-5.693,12.25-9.892c3.265-4.193,4.899-9.532,4.899-16.006c0-6.953-2.16-12.589-6.475-16.906
		c-4.32-4.316-9.975-7.913-16.975-10.791c-7-2.877-14.935-5.396-23.8-7.554c-8.87-2.158-17.85-4.552-26.95-7.194
		c-9.335-2.394-18.435-5.333-27.3-8.812c-8.87-3.474-16.8-7.97-23.8-13.489c-7-5.513-12.66-12.41-16.975-20.683
		c-4.32-8.273-6.475-18.283-6.475-30.035c0-13.185,2.74-24.64,8.225-34.351c5.48-9.712,12.655-17.805,21.525-24.28
		c8.865-6.475,18.9-11.269,30.1-14.388c11.2-3.114,22.4-4.676,33.6-4.676c13.065,0,25.604,1.501,37.625,4.496
		c12.015,3.001,22.689,7.857,32.025,14.568c9.329,6.716,16.739,15.287,22.225,25.718c5.479,10.431,8.225,23.082,8.225,37.948h-53.2
		c-0.47-7.672-2.045-14.028-4.725-19.064c-2.685-5.036-6.245-8.992-10.675-11.87c-4.435-2.877-9.51-4.912-15.225-6.115
		c-5.72-1.197-11.96-1.799-18.725-1.799c-4.435,0-8.87,0.483-13.3,1.439c-4.435,0.961-8.46,2.642-12.075,5.036
		c-3.62,2.4-6.595,5.395-8.925,8.992c-2.335,3.597-3.5,8.155-3.5,13.669c0,5.036,0.93,9.116,2.8,12.23
		c1.865,3.119,5.54,5.997,11.025,8.633c5.479,2.642,13.064,5.278,22.75,7.914c9.68,2.642,22.34,5.997,37.975,10.071
		c4.665,0.961,11.14,2.698,19.425,5.216c8.28,2.518,16.505,6.536,24.676,12.05c8.164,5.519,15.225,12.893,21.175,22.122
		c5.95,9.234,8.925,21.042,8.925,35.43c0,11.752-2.221,22.661-6.65,32.733c-4.435,10.072-11.024,18.766-19.774,26.078
		c-8.75,7.317-19.601,13.011-32.55,17.086c-12.95,4.075-27.946,6.115-44.976,6.115c-13.77,0-27.125-1.742-40.075-5.216
		c-12.95-3.474-24.385-8.931-34.3-16.366c-9.92-7.431-17.795-16.906-23.625-28.416c-5.835-11.511-8.635-25.179-8.4-41.006h53.2
		C90.039,321.99,91.554,329.307,94.589,335.298z"/>
	<path fill="#46726B" d="M337.881,257.885v146.476h-54.949V257.885H337.881z"/>
	<path fill="#46726B" d="M363.383,185.808v-49.569h204.75v49.569h-74.899v218.553h-54.95V185.808H363.383z"/>
</g>
<g>
	<g>
		<path fill="#46726B" d="M310.407,136.057c-19.777,0-35.738,16.082-35.738,35.859c0,0.241,0,0.459,0,0.7
			c0,1.28,0.241,4.274,1.159,8.548c2.318,10.746,9.031,21.974,28.566,40.133c0.121,0.121,0.121,0.121,0.241,0.241
			c1.859,1.618,3.695,3.357,5.771,5.216c2.077-1.859,3.936-3.574,5.771-5.216c0.121-0.121,0.121-0.121,0.241-0.241
			c19.535-18.159,26.369-29.387,28.566-40.133c0.918-4.274,1.159-7.293,1.159-8.548c0-0.241,0-0.459,0-0.7
			C346.145,152.139,330.184,136.057,310.407,136.057z M310.407,185.221c-7.413,0-13.305-6.013-13.305-13.305
			s5.892-13.305,13.305-13.305s13.305,6.013,13.305,13.305S317.82,185.221,310.407,185.221z"/>
		<path fill="#46726B" d="M318.279,221.418c-1.859,1.618-5.771,5.554-7.872,7.293c-2.077-1.859-6.013-5.675-7.872-7.293
			c-9.611,0.58-25.21,2.656-25.21,5.216c0,3.018,20.694,5.433,33.082,5.433c12.388,0,33.082-2.439,33.082-5.433
			C343.489,224.074,327.865,221.997,318.279,221.418z"/>
	</g>
</g>
<circle fill="#E7811E" stroke="#FFFFFF" stroke-width="5" stroke-miterlimit="10" cx="310.407" cy="171.916" r="18.594"/>
<text transform="matrix(1 0 0 1 33.5217 485.4785)" fill="#46726B" font-family="'HelveticaNeue-Bold'" font-size="60px" letter-spacing="4">PNR Région Sud</text>
</svg>
