<?xml version="1.0" encoding="utf-8"?>
<!-- Generator: Adobe Illustrator 24.2.3, SVG Export Plug-In . SVG Version: 6.00 Build 0)  -->
<svg version="1.1" id="Calque_1" xmlns="http://www.w3.org/2000/svg" xmlns:xlink="http://www.w3.org/1999/xlink" x="0px" y="0px"
	 viewBox="0 0 841.89 1190.551" enable-background="new 0 0 841.89 1190.551" xml:space="preserve">
<g>
	<g>
		<defs>
			<path id="SVGID_1_" d="M469.83,640.3L469.83,640.3l3.616-1.31l4.13-1.719c9.485-3.992,11.38-4.568,22.031-9.172
				c6.207-2.683,25.753-10.658,25.753-10.658c0-18.573,0-117.541,0-117.541H414.297c0,0-0.154,98.635-0.154,117.541
				c0,0,35.182,14.833,41.551,16.913"/>
		</defs>
		<clipPath id="SVGID_2_">
			<use xlink:href="#SVGID_1_"  overflow="visible"/>
		</clipPath>
		<polygon clip-path="url(#SVGID_2_)" fill="#F9B000" points="529.17,641.733 528.812,485.555 410.243,485.555 410.601,641.733 		
			"/>
		<polygon clip-path="url(#SVGID_2_)" fill="#FFFFFF" points="525.041,626.037 528.85,558.884 470.301,558.878 470.367,641.086 		
			"/>
		<rect x="420.375" y="485.569" clip-path="url(#SVGID_2_)" fill="#E30613" width="6.089" height="138.077"/>
		<rect x="432.73" y="485.569" clip-path="url(#SVGID_2_)" fill="#E30613" width="6.088" height="143.181"/>
		<rect x="445.083" y="485.551" clip-path="url(#SVGID_2_)" fill="#E30613" width="6.089" height="148.661"/>
		<rect x="457.432" y="485.551" clip-path="url(#SVGID_2_)" fill="#E30613" width="6.09" height="153.138"/>
		<path clip-path="url(#SVGID_2_)" fill="none" stroke="#000000" stroke-width="0.5092" d="M469.699,490.361"/>
		<path clip-path="url(#SVGID_2_)" fill="none" stroke="#000000" stroke-width="0.5092" d="M469.699,623.807"/>
	</g>
	<path fill="none" stroke="#000000" stroke-width="0.5092" stroke-linecap="round" stroke-linejoin="round" d="M525.207,617.441
		c0-15.718,0-117.53,0-117.53H414.142c0,0,0,101.533,0,117.53l56.159,22.859L525.207,617.441z"/>
	<g>
		<g>
			<path stroke="#FFFFFF" stroke-width="0.0339" d="M514.593,606.819c-0.941-7.246-3.995-11.742-7.445-11.742
				c-3.494,0-6.528,5.258-7.401,12.887"/>
			<path stroke="#FFFFFF" stroke-width="0.0339" d="M495.737,608.034c-0.759-7.905-3.948-12.87-7.573-12.87
				c-3.347,0-6.265,4.818-7.278,11.915"/>
			<path stroke="#FFFFFF" stroke-width="0.0848" d="M504.389,607.324c-1.338-5.181-3.927-8.27-6.783-8.27
				c-2.818,0-5.34,3.421-6.667,8.751"/>
		</g>
		<polygon fill="#E30613" stroke="#000000" stroke-width="0.112" points="495.335,572.282 495.023,572.17 494.717,572.17 
			494.5,572.17 494.187,572.17 493.941,572.242 493.722,572.356 493.475,572.47 493.224,572.508 492.944,572.47 492.665,572.431 
			492.384,572.321 492.168,572.17 491.949,571.948 491.824,571.575 491.796,571.313 491.763,571.087 491.639,571.013 
			491.483,571.126 491.483,571.425 491.516,571.761 491.639,572.17 491.763,572.47 491.949,572.657 492.138,572.84 492.384,572.954 
			492.694,572.991 492.975,572.954 493.224,572.954 493.475,572.84 493.781,572.767 494.187,572.657 494.56,572.657 494.84,572.692 
			495.119,572.8 495.335,572.917 495.617,573.103 495.833,573.252 496.083,573.29 496.144,573.028 496.052,572.692 495.895,572.47 
			495.739,572.356 495.585,572.205 		"/>
		<polyline fill="#E30613" stroke="#000000" stroke-width="0.112" points="495.866,573.453 495.493,573.402 495.034,573.201 
			494.415,573.103 493.959,573.154 493.46,573.353 493.05,573.649 493.295,573.6 493.628,573.549 494.043,573.549 494.538,573.649 
			494.996,573.85 495.326,574.046 495.617,574.198 497.559,573.936 497.462,572.4 496.373,571.282 495.636,571.209 495.443,570.016 
			494.911,570.172 494.624,569.824 494.25,569.623 493.918,569.572 493.443,569.673 493.07,569.897 492.717,570.221 
			492.508,570.517 492.343,571.064 492.429,571.663 492.594,572.107 492.758,571.81 492.966,571.61 493.295,571.51 493.709,571.561 
			494.208,571.663 494.706,571.859 495.203,572.162 495.533,572.459 495.825,572.751 495.95,573.154 495.866,573.453 		"/>
		<path fill="#E30613" stroke="#000000" stroke-width="0.112" d="M501.002,567.625l-1.144,1.466l0.295-2.144l-0.971,1.81
			l0.212-2.183l-0.881,1.939l0.075-2.211l-0.733,1.908l-0.024-2.128l-0.673,1.943l-0.063-2.083l-0.621,1.994l-0.044,0.055
			l-0.286-2.049l-0.388,1.961l-0.511-1.961l-0.216,2.081l-0.586-1.945l0.132,2.118l0.011,0.014l-0.011,0.747l-0.012,0.409
			c0,0-0.002,0.002-0.006,0.004l0.004,0.002l-0.009,0.318c-0.022,0.061,0.843,0.02,0.801,0.032l3.576,0.953
			c0.193,0.159,0.916,0.157,0.889,0.287l0.141-0.534c-0.003,0.008,0,0.012,0,0.016l0.197-0.786h0.009
			c0-0.006-0.006-0.01-0.006-0.018l0.032-0.122L501.002,567.625z"/>
		<g>
			<path fill="#004982" stroke="#000000" stroke-width="0.2356" d="M515.679,607.26v-0.444c-1.06-0.226-1.458-0.857-1.498-1.605
				c-0.045,0.725-0.766,1.33-1.773,1.574l-1.864,0.012c-1.062-0.242-1.825-0.886-1.825-1.646l-0.02,0.026
				c0,0.755-0.744,1.395-1.788,1.641l-1.841,0.008c-1.07-0.238-1.835-0.882-1.835-1.648h-0.05c0,0.788-0.812,1.456-1.931,1.674
				l-1.553,0.008c-1.11-0.202-1.931-0.839-1.977-1.607c-0.027,0.768-0.826,1.413-1.921,1.631l-1.569,0.006
				c-1.085-0.198-1.887-0.813-1.966-1.554c-0.056,0.727-0.814,1.34-1.85,1.568h-1.758c-1.038-0.228-1.799-0.845-1.847-1.578
				c-0.087,0.778-0.97,1.411-2.127,1.578h-1.197c-1.169-0.167-2.055-0.819-2.13-1.603c-0.078,0.745-0.676,1.36-1.758,1.56v0.228
				v3.291h1.633l0,0h33.242l0,0h1.202V607.26z"/>
		</g>
		<polygon fill="#E30613" stroke="#000000" stroke-width="0.112" points="494.612,583.637 493.389,582.43 493.389,582.418 
			493.377,582.418 493.071,582.114 493.117,582.348 492.389,582.161 492.952,580.703 489.966,579.941 486.85,578.732 
			485.295,576.349 483.071,576.443 482.565,578.658 482.353,579.314 481.747,579.394 481.762,581.106 481.235,582.717 
			481.235,584.047 481.146,585.089 481.146,586.23 481.318,587.085 481.146,588.126 481.235,589.36 481.146,590.5 481.235,591.639 
			481.405,592.683 481.747,593.349 481.747,594.199 481.919,595.341 482.003,596.29 482.262,597.237 482.434,598.186 
			482.773,597.901 482.862,597.05 482.862,595.72 482.862,594.103 482.948,592.398 483.463,592.592 483.722,591.734 
			483.722,591.069 484.06,591.262 484.402,590.688 484.5,590.04 484.748,590.311 485.174,589.932 485.427,588.981 485.688,589.171 
			486.204,588.792 486.459,587.936 486.464,587.879 486.59,587.967 487.038,587.894 486.972,588.604 487.315,589.075 
			487.742,588.981 488.088,589.454 488.6,589.647 488.694,589.334 488.86,589.835 489.286,590.122 489.885,590.026 490.573,590.215 
			490.828,589.454 490.828,588.319 490.742,587.179 490.69,586.894 490.843,586.894 490.802,587.44 491.145,588.008 
			491.573,587.892 491.917,588.466 492.43,588.692 492.602,588.008 492.686,586.643 492.686,585.87 492.854,586.684 
			493.281,587.069 493.536,586.21 493.536,584.882 493.496,584.212 494.014,586.766 494.443,587.146 494.698,586.293 
			494.698,584.965 		"/>
		<path fill="#E30613" stroke="#000000" stroke-width="0.112" d="M515.409,585.499l-0.087-1.045v-1.326l-0.471-1.44
			c-0.017-0.155-0.036-0.312-0.056-0.466l0.016-1.417l-0.277-0.035c-0.254-1.089-0.577-1.932-0.809-2.256
			c-0.507-0.719-3.215,0.55-4.149,0.678c-0.933,0.128-2.332,0.379-2.332,0.379s-0.296,1.271-1.613,1.782
			c-1.313,0.505-3.006,0.338-3.006,0.338l-0.53,2.026l-1.13,1.11l-0.083,1.33v1.33l0.258,0.853l0.427-0.383l0.288-1.417v1.159
			l0.259,0.855l0.426-0.379l0.524-2.578l-0.043,0.696v1.326l0.257,0.857l0.427-0.381l0.164-0.857v0.811l0.085,1.366l0.176,0.682
			l0.513-0.222l0.341-0.572l0.429,0.112l0.343-0.564l-0.042-0.55h0.156l-0.059,0.287l-0.082,1.138v1.14l0.256,0.757l0.684-0.189
			l0.602,0.094l0.428-0.283l0.165-0.499l0.092,0.31l0.511-0.191l0.343-0.477l0.431,0.096l0.342-0.475l-0.062-0.705l0.447,0.075
			l0.126-0.088l0.005,0.059l0.257,0.853l0.515,0.379l0.255-0.193l0.258,0.953l0.428,0.377l0.243-0.267l0.098,0.646l0.343,0.572
			l0.346-0.191v0.662l0.252,0.853l0.518-0.187l0.085,1.709v1.613v1.328l0.086,0.853l0.343,0.289l0.173-0.953l0.255-0.949
			l0.087-0.949l0.174-1.138v-0.857l0.338-0.664l0.173-1.041l0.087-1.14l-0.087-1.141l0.087-1.232l-0.173-1.043l0.173-0.855V585.499z
			"/>
		<g>
			<path fill="none" stroke="#FFFFFF" stroke-width="0.2544" d="M507.106,608.637c-0.773-0.309-1.287-0.861-1.287-1.483
				l-0.016,0.027c0,0.969-1.225,1.749-2.735,1.749c-1.51,0-2.734-0.78-2.734-1.749h-0.051c0,0.969-1.224,1.749-2.73,1.749
				c-1.513,0-2.736-0.78-2.736-1.749l0.008,0.035c0,0.965-1.222,1.747-2.734,1.747c-1.507,0-2.731-0.782-2.731-1.747l0.016,0.033
				c0,0.969-1.226,1.749-2.736,1.749c-1.509,0-2.735-0.78-2.735-1.749l0.02-0.049c0,0.967-1.225,1.745-2.733,1.745
				c-1.51,0-2.736-0.778-2.736-1.745l0.016-0.02c0,0.611-0.362,1.069-1.107,1.381"/>
			<path fill="none" stroke="#FFFFFF" stroke-width="0.2544" d="M518.026,608.664c-0.772-0.31-1.283-0.855-1.283-1.483l-0.02,0.032
				c0,0.965-1.223,1.747-2.735,1.747c-1.507,0-2.734-0.782-2.734-1.747h-0.047c0,0.965-1.222,1.747-2.736,1.747
				c-1.512,0-2.732-0.782-2.732-1.747l0.008,0.029c0,0.967-1.223,1.751-2.732,1.751s-2.737-0.784-2.737-1.751l0.02,0.037
				c0,0.969-1.224,1.751-2.734,1.751c-1.512,0-2.738-0.782-2.738-1.751l0.019-0.047c0,0.963-1.222,1.747-2.735,1.747
				c-1.51,0-2.733-0.784-2.733-1.747l0.016-0.024c0,0.613-0.363,1.069-1.11,1.385"/>
		</g>
		<path fill="#E30613" stroke="#000000" stroke-width="0.112" d="M511.267,595.913l-0.193-0.259l-0.216-0.191l-0.28-0.259
			l-0.307-0.147l-0.314-0.073h-0.432l-0.14,0.01l0.044-0.049l0.347-0.187l0.369-0.069c0.038-0.004,0.067-0.008,0.103-0.014
			l0.023,0.008l0.371-0.149l0.28,0.037l0.187,0.151l0.216,0.185l0.092,0.338l0.098-0.261l-0.036-0.412l-0.062-0.334l-0.124-0.301
			l-0.247-0.259l-0.249-0.189h-0.007l-0.026-0.114l-0.309-0.297l-0.344-0.035l-0.404,0.185l-0.341,0.147l-0.342,0.303l-0.371,0.297
			l-0.436,0.263l-0.405,0.297l-0.466,0.224l-0.329,0.132l-0.511-0.167l-0.494-0.151l-0.498-0.224l-0.531-0.299l-0.433-0.224
			l-0.436-0.259l-0.465-0.413l-0.373-0.371l-0.257-0.299l-0.362-0.413l-0.345-0.407l-0.403-0.521l-1.337-0.338l0.933,2.348
			l0.404,0.377l0.433,0.257l0.498,0.45l0.653,0.413l0.557,0.257l0.499,0.149l0.558,0.147l0.406,0.077l0.589,0.299l0.249,0.11
			l-0.527,0.112l-0.374,0.039l-0.372,0.035l-0.405,0.037l-0.343,0.077l-0.31,0.185l-0.246,0.261l-0.125,0.444l0.038,0.254
			l-0.007,0.01l-0.093,0.375l-0.032,0.334l0.032,0.375l0.156,0.224l0.184,0.257l0.253,0.077l0.306,0.037h0.251l0.217-0.073
			l-0.184-0.041l-0.251-0.033l-0.155-0.224l-0.125-0.224v-0.301l0.057-0.134l0.1,0.022l0.214-0.073l0.16-0.224l0.123-0.226
			l0.09-0.257l0.125-0.263l0.282,0.075l0.434,0.033l0.433-0.033l0.343-0.114l0.249-0.108l0.25-0.226l0.186,0.073l0.249,0.153
			l0.308,0.185l0.345,0.226l0.309,0.222l0.249,0.189l0.06,0.149l-0.06,0.22v0.302l0.091,0.258l0.28,0.149l0.058,0.018l0.035,0.208
			l0.154,0.297l0.094,0.299l-0.062,0.299l-0.187,0.183l-0.217,0.151l-0.374,0.037l0.187,0.151l0.311,0.035l0.185-0.075l0.188-0.149
			l0.249-0.189l0.186-0.295l0.093-0.375l0.031-0.411l-0.031-0.334l-0.076-0.143l0.041-0.041l0.035-0.338l-0.065-0.257l-0.215-0.189
			v-0.263l-0.127-0.22l-0.186-0.191l-0.249-0.297l-0.309-0.224h0.155l0.219-0.037l0.248-0.037l0.249-0.035h0.28h0.185l0.093,0.11
			l-0.154,0.112l0.061,0.301l0.155,0.336l0.248,0.149l0.032,0.11l0.092,0.261v0.299l-0.029,0.297l-0.127,0.226h0.127l0.217-0.185
			l0.216-0.265l0.063-0.257l0.066-0.303l0.027-0.332l-0.046-0.149l0.11-0.114l0.093-0.299l-0.062-0.297L511.267,595.913z"/>
		<path fill="#E30613" stroke="#000000" stroke-width="0.112" d="M494.157,591.152l-0.406,0.523l-0.342,0.411l-0.359,0.407
			l-0.259,0.301l-0.374,0.373l-0.468,0.409l-0.433,0.261l-0.435,0.226l-0.528,0.297l-0.498,0.224l-0.497,0.151l-0.51,0.167
			l-0.329-0.13l-0.469-0.226l-0.404-0.301l-0.43-0.261l-0.376-0.293l-0.34-0.303l-0.343-0.15l-0.406-0.185l-0.341,0.035
			l-0.309,0.299l-0.024,0.114h-0.01l-0.249,0.189l-0.248,0.257l-0.124,0.297l-0.061,0.338l-0.032,0.411l0.093,0.259l0.09-0.334
			l0.219-0.185l0.188-0.151l0.28-0.037l0.372,0.147l0.015-0.006c0.054,0.012,0.105,0.022,0.18,0.029l0.304,0.055l0.342,0.183
			l0.043,0.051l-0.139-0.012h-0.436l-0.308,0.077l-0.312,0.147l-0.276,0.261l-0.22,0.185l-0.185,0.261l-0.123,0.189l-0.065,0.297
			l0.094,0.301l0.107,0.112l-0.045,0.145l0.032,0.334l0.06,0.303l0.066,0.261l0.216,0.261l0.217,0.183h0.123l-0.123-0.222
			l-0.03-0.301v-0.299l0.093-0.257l0.03-0.112l0.251-0.151l0.154-0.336l0.061-0.297l-0.157-0.112l0.096-0.11h0.188h0.278
			l0.249,0.039l0.25,0.033l0.216,0.037h0.154l-0.31,0.222l-0.246,0.303l-0.186,0.183l-0.126,0.224v0.261l-0.22,0.189l-0.058,0.261
			l0.027,0.334l0.047,0.041l-0.074,0.143l-0.033,0.338l0.033,0.411l0.09,0.373l0.188,0.299l0.249,0.185l0.185,0.147l0.189,0.075
			l0.308-0.037l0.19-0.149l-0.374-0.035l-0.217-0.149l-0.188-0.185l-0.063-0.297l0.096-0.301l0.154-0.301l0.038-0.2l0.055-0.022
			l0.276-0.151l0.098-0.258v-0.303l-0.066-0.22l0.066-0.148l0.249-0.19l0.308-0.224l0.345-0.222l0.31-0.189l0.245-0.147l0.188-0.075
			l0.248,0.222l0.25,0.116l0.342,0.11l0.433,0.035l0.437-0.035l0.277-0.075l0.126,0.259l0.093,0.259l0.125,0.228l0.155,0.222
			l0.215,0.073l0.1-0.018l0.055,0.134v0.297l-0.123,0.224l-0.154,0.222l-0.248,0.039l-0.187,0.035l0.216,0.079h0.25l0.309-0.039
			l0.25-0.075l0.185-0.261l0.154-0.224l0.03-0.371l-0.03-0.336l-0.093-0.375l-0.007-0.01l0.039-0.251l-0.123-0.448l-0.249-0.259
			l-0.312-0.185l-0.344-0.077l-0.4-0.037l-0.376-0.035l-0.371-0.039l-0.529-0.11l0.25-0.11l0.592-0.301l0.402-0.075l0.561-0.147
			l0.493-0.151l0.562-0.259l0.653-0.415l0.498-0.448l0.434-0.257l0.404-0.373l0.932-2.348L494.157,591.152z"/>
		<path fill="#E30613" stroke="#000000" stroke-width="0.112" d="M515.495,580.184l-0.086-0.949l-0.259-0.76l-0.338-0.566
			l-0.432-0.666c-0.267-0.468-0.427-0.927-0.682-1.151c-0.253-0.22-1.206-0.953-2.144-0.933c-0.943,0.012-1.351,0.65-1.448,0.949
			c-0.094,0.303-0.24,1.688-0.573,1.827c-0.332,0.146-0.872-0.126-1.237-0.413c-0.368-0.285-0.763-0.648-1.256-0.332
			c-0.494,0.316-0.144,2.399-1.049,2.798c-0.256,0.11-0.716-0.285-0.972-0.269c-0.25,0.012-1.299,0.729-1.759,0.585
			c-0.464-0.141-1.051-0.874-1.307-1.191c-0.253-0.316-0.628-0.552-0.743-0.642l-0.415-0.397l-0.248-0.397l-0.044-0.112
			c-0.35-0.672-0.377-1.218-0.397-1.643c-0.021-0.464,0.126-1.755,0.064-2.436c-0.064-0.676-0.213-1.586-0.255-1.843
			c-0.025-0.153-0.128-0.358-0.097-0.66v-0.022l-0.389-0.493l-0.093-0.094c-0.04-0.026-0.075-0.051-0.106-0.081
			c-0.032-0.029-0.08-0.065-0.136-0.102l-0.196-0.151l-0.142-0.096c-0.453-0.242-1.057-0.422-1.523-0.58l-0.207-0.039l-0.497-0.051
			l-0.495-0.098h-0.456h-0.374l-0.292,0.098l-0.164,0.25l-0.123,0.301l0.287,0.348l0.208,0.346l0.248,0.397l0.268,0.486l0.287,0.652
			l0.224,0.462l0.193,0.269l0.224,0.501v0.499l-0.385,0.267l-0.448,0.041l-0.255-0.041l0.432,0.493l0.332,0.304l0.206,0.244v0.45
			l-0.124,0.446l-0.167,0.348l-0.165,0.446l-0.04,0.348c-0.065,0.132-0.319,0.252-0.766,0.666c-0.441,0.411-0.491,0.825-0.649,1.018
			c-0.158,0.191-0.511,0.236-0.649,0.381c-0.145,0.143-0.32,0.633-0.53,0.682c-0.205,0.047-1.048-0.287-1.46-0.446
			c-0.413-0.155-0.477-0.079-0.812,0.143c-0.332,0.222-0.937-0.476-1.13-0.794c-0.189-0.318-0.012-1.527-0.286-1.874
			c-0.267-0.352-0.842-0.208-1.125,0.012c-0.287,0.226-1.018,0.717-1.524,0.605c-0.511-0.108-0.511-1.857-0.877-2.24
			c-0.366-0.381-0.761-0.729-1.889-0.412c-1.13,0.316-1.638,1.096-1.736,1.301l-0.346,0.664l-0.425,0.666l-0.342,0.564l-0.259,0.764
			l-0.087,0.949l-0.082,1.043l0.082,1.138l0.176,0.758l0.339,0.191l0.173-0.379l0.257-0.666l0.258-0.662l0.255-0.762l0.172-0.756
			l0.173,0.664l0.169,0.476l0.432,0.189l0.426-0.189l0.343-0.572l0.171-0.568l0.088-0.761l0.258,0.857l0.254,0.66l0.346,0.383
			l0.513,0.092l0.427-0.377v-0.662l0.518,0.564l0.424,0.289l0.514,0.473l0.429,0.379h0.602l0.339,0.568l0.346-0.092l0.339,0.379
			h0.43l0.345-0.287l0.256-0.568l0.515,0.475l0.429-0.096l0.325,0.495l0.843,0.428l0.666,0.741l1.025,0.21l0.031,0.024l-0.037,0.185
			l0.04,0.446l0.082,0.552l0.088,0.275l0.035,0.118l-0.04,0.25l0.04,0.446l0.061,0.226l0.028,0.073l-0.088,0.348v0.45l-0.04,0.397
			l-0.205,0.348l-0.209,0.249l-0.291,0.299l-0.287,0.397l-0.209,0.495l-0.126,0.401l-0.042,0.499h-0.535l-0.54,0.196l-0.246,0.299
			v0.397l0.123-0.348l0.292-0.197l0.288-0.104l0.501,0.051l-0.459,0.249l-0.206,0.397l0.249-0.199l0.249-0.147h0.287l0.334-0.051
			l-0.373,0.299l-0.331,0.495l-0.165,0.55l0.126,0.295l0.08-0.346l0.164-0.399l0.207-0.151l0.335-0.096h0.287l0.375-0.1
			l-0.167,0.348l-0.208,0.35l-0.247,0.249l-0.375,0.196l0.292,0.051l0.289-0.051l0.29-0.149l0.333-0.297l-0.168,0.395l-0.082,0.352
			l-0.165,0.395L494,593.539l0.332,0.045l0.332-0.196l0.294-0.399l0.328-0.395l-0.21,0.448l-0.118,0.397l-0.211,0.448l-0.456,0.393
			l-0.373,0.153l0.165,0.1h0.373l0.373-0.049l0.373-0.1l0.414-0.153l0.249-0.247l0.373-0.293l-0.085,0.344l-0.165,0.35l-0.124,0.35
			l0.249-0.301l0.165-0.248l0.248-0.548l0.043,0.297l-0.086,0.45l-0.081,0.35l-0.165,0.346l-0.29,0.297l-0.21,0.202l-0.329,0.197
			l-0.452,0.149l-0.502,0.051l-0.538,0.051l-0.661-0.051l-0.417-0.248l-0.412-0.149l0.204,0.248l0.207,0.297l0.291,0.299
			l0.329,0.252l0.377,0.147l0.454,0.051l0.414-0.051l0.455-0.049l0.372-0.147l0.292-0.202l0.33-0.395l0.044,0.542l-0.127,0.399
			l-0.123,0.35l-0.168,0.301l-0.289,0.346l-0.373,0.346l-0.33,0.299l-0.374,0.149l-0.372,0.147l-0.457,0.153l-0.455,0.049
			l-0.579,0.051l-0.497,0.049h-0.496l-0.459,0.102l-0.371,0.096l-0.416,0.25l-0.332,0.246l-0.206,0.299l-0.164,0.301l-0.041,0.446
			l0.041,0.348l0.164,0.401l0.206,0.196l0.249,0.098l0.288,0.051l0.291-0.098l0.249-0.348l-0.207,0.198l-0.208,0.149h-0.249
			l-0.248-0.149l-0.122-0.299v-0.301l0.039-0.348l0.167-0.346l0.33-0.301l0.416-0.149l0.457-0.098l0.369,0.051h0.499l-0.33,0.197
			l-0.251,0.348l-0.123,0.497l0.04,0.401l0.207,0.297l0.335,0.248h0.495l-0.208-0.098l-0.247-0.297l-0.082-0.35l0.082-0.399
			l0.247-0.299l0.334-0.147l0.455-0.049l0.494-0.151l0.417-0.197l0.579-0.149l0.414-0.297l0.416-0.301l0.413-0.397l0.291-0.399
			l0.37-0.595l-0.038,0.595v0.501l-0.208,0.444l-0.205,0.399l-0.333,0.348l-0.373,0.395l-0.332,0.299l-0.291,0.299l-0.332,0.248
			l-0.413,0.102h-0.416l-0.367-0.049l-0.333-0.098l-0.456-0.401l0.33,0.401l0.291,0.295l0.413,0.202l0.292,0.145l0.455-0.047
			l0.537-0.149l0.375-0.198l0.371-0.301l0.373-0.25l0.374-0.446l0.329-0.346l-0.122,0.247l0.041,0.395l-0.041,0.452l-0.043,0.497
			l-0.164,0.446l-0.209,0.249l-0.289,0.149l-0.456-0.051l0.329,0.199h0.376l0.289-0.049l0.369-0.198v0.346l0.045,0.497l0.165,0.546
			l0.165,0.397l0.083-0.346l0.123-0.45l0.127-0.544l0.081-0.446l0.042-0.299l0.249,0.299l0.289,0.198l0.29,0.147l0.456-0.098
			l-0.331-0.147l-0.164-0.249l-0.209-0.35l-0.121-0.297l-0.086-0.401l-0.038-0.297l0.079-0.497l0.295,0.399l0.244,0.35l0.457,0.248
			l0.332,0.147l0.333,0.149l0.495,0.051l0.414-0.149l0.413-0.098l0.334-0.303l0.288-0.248l0.248-0.448l-0.161,0.198l-0.251,0.149
			l-0.249,0.1l-0.288,0.1l-0.292,0.049l-0.415-0.149l-0.413-0.198l-0.417-0.198l-0.33-0.248l-0.291-0.247l-0.207-0.399l-0.206-0.495
			l-0.25-0.65l-0.162-0.745l-0.086-0.896l-0.085-1.144l0.17,0.599l0.203,0.497l0.29,0.546l0.332,0.397l0.456,0.497l0.376,0.399
			l0.412,0.247l0.494,0.299l0.499,0.25l0.497,0.098l0.289,0.148l0.292,0.2l0.165,0.249l0.126,0.446v0.448l-0.165,0.301l-0.541,0.299
			l0.416-0.051l0.33-0.198l0.25-0.301l0.166-0.399V600.5l-0.123-0.45l-0.245-0.448l-0.377-0.293l-0.581-0.202l0.413,0.051h0.373
			h0.457h0.539l0.54,0.151l0.537,0.248l0.373,0.247l0.332,0.348l0.25,0.395l0.122,0.597v0.798l0.165-0.595v-0.55l-0.123-0.544
			l-0.251-0.448l-0.37-0.399l-0.457-0.348l-0.622-0.25l-0.498-0.2l-0.579-0.047H502h-0.625l-0.624-0.151l-0.494-0.197l-0.495-0.348
			l-0.415-0.399l-0.291-0.348l-0.206-0.55l-0.209-0.495l-0.412-0.595l0.412,0.348l0.333,0.348l0.413,0.297l0.623,0.254l0.58,0.047
			l0.704-0.047l0.453-0.155l0.416-0.299l0.457-0.542l0.333-0.648l-0.25,0.399l-0.332,0.297l-0.37,0.2l-0.458,0.147l-0.497,0.051
			l-0.622-0.1l-0.579-0.098l-0.459-0.248l-0.497-0.399l-0.331-0.548l-0.291-0.501l-0.203-0.642l0.203,0.497l0.291,0.399l0.415,0.399
			l0.373,0.098l-0.458-0.348l-0.208-0.352l-0.205-0.397l-0.291-0.892l0.291,0.542l0.332,0.45l0.33,0.245l0.374,0.204h0.415
			l0.289-0.153l0.124-0.145l-0.331,0.045h-0.329l-0.374-0.196l-0.25-0.344l-0.206-0.499v-0.648l0.084-0.495l0.04-0.599l0.122,0.648
			l0.291,0.446l0.376,0.446l0.454,0.499l0.247,0.646l0.168,0.35l0.164-0.501l-0.081-0.444l-0.25-0.599l0.377,0.448l0.205,0.499
			l0.206,0.796l0.042-0.699v-0.495l-0.169-0.499l-0.123-0.497l0.249,0.25l0.332,0.399l0.249,0.348l0.167,0.348l0.162,0.495
			l0.123,0.352l0.125-0.497v-0.601l-0.125-0.495l-0.205-0.395l-0.333-0.597l0.373,0.198l0.211,0.247l0.247,0.397l0.247,0.599
			l0.168-0.051l-0.087-0.644l-0.123-0.497l-0.249-0.448l-0.126-0.303l0.293,0.1l0.291,0.153l0.412,0.399l-0.289-0.601l-0.457-0.642
			l-0.289-0.55l-0.25-0.595l-0.248-0.599l-0.496-0.595l-0.373-0.446l-0.333-0.147l0.171-0.648l0.12-0.597v-0.743l0.014-0.128
			l0.151-0.422l0.085-0.644l0.041-0.599l1.698-0.257l0.666-0.737l0.842-0.432l0.326-0.493l0.428,0.092l0.517-0.475l0.256,0.568
			l0.342,0.287h0.432l0.339-0.379l0.344,0.092l0.344-0.568h0.602l0.423-0.375l0.516-0.479l0.428-0.283l0.518-0.566v0.66l0.422,0.381
			l0.516-0.094l0.345-0.381l0.257-0.664l0.257-0.855l0.083,0.76l0.174,0.57l0.341,0.57l0.425,0.191l0.432-0.191l0.17-0.475
			l0.17-0.664l0.176,0.758l0.255,0.762l0.255,0.662l0.26,0.662l0.169,0.381l0.342-0.189l0.172-0.758l0.084-1.14L515.495,580.184z"/>
		<g>
			<g>
				<g>
					<g>
						<g>
							<g>
								<path d="M496.052,570.942c0.123,0,0.157,0.069,0.157-0.077c0-0.145-0.1-0.261-0.223-0.261c-0.12,0-0.22,0.116-0.22,0.261
									C495.766,571.011,495.931,570.942,496.052,570.942z"/>
							</g>
						</g>
					</g>
				</g>
			</g>
		</g>
	</g>
	<g>
		<g>
			<path fill="#E30613" stroke="#000000" stroke-width="0.0943" stroke-linejoin="round" d="M496.325,519.81
				c0.198,1.256,0.231,2.682,0.166,3.272c-0.068,0.598,0.167,2.354-1.854,2.121c0.594-0.793,0.495-1.159,0.398-2.054
				c-0.1-0.891-0.565-2.58-0.994-3.075c-0.43-0.495-0.663-0.696-0.663-0.696s0.103,0.497,0.233,1.095
				c0.133,0.593,0.065,1.618-0.129,1.916c-0.203,0.298-0.732,0.692-1.691,0.628c0.629-0.56,0.795-0.859,0.729-1.688
				c-0.083-1.06-0.928-2.551-1.623-3.344c0.76-0.332,3.609,0.63,3.609,0.63L496.325,519.81z"/>
			<g>
				<path fill="#E30613" stroke="#000000" stroke-width="0.0943" stroke-linejoin="round" d="M506.798,532.569
					c0.581-0.25,1.36-0.648,1.837-0.664c0.479-0.016,1.175,0.531,1.275,1.145c0.347-0.614,0.479-1.839,1.043-2.3
					c0.561-0.465,1.669-0.348,2.398-0.181c-0.993-0.483-1.786-1.211-2.629-2.717c-0.844-1.507-1.636-2.501-1.872-3.042
					c-0.23-0.549-0.114,0.923-0.114,0.923l-0.698,2.401l-1.091,3.624L506.798,532.569z"/>
			</g>
			<g>
				<path fill="#E30613" stroke="#000000" stroke-width="0.0943" stroke-linejoin="round" d="M499.898,527.058
					c-0.761,1.487-1.688,5.163-3.276,6.286c-1.587,1.127-1.985,1.489-3.344,1.624c1.095,0.264,2.814,0.463,2.517,1.028
					c-0.299,0.559-0.2,0.394-0.2,0.394s0.629-0.101,0.761,0.034c0.134,0.131,0.332,0.793,0.332,1.127
					c0,0.33-0.233,0.926,0.331,0.398c0.563-0.533,3.075-5.298,3.11-6.028C500.163,531.193,499.898,527.058,499.898,527.058z"/>
			</g>
			<g>
				<path fill="#E30613" stroke="#000000" stroke-width="0.0943" stroke-linejoin="round" d="M506.683,533.181
					c-0.267,2.451-1.325,5.523-1.191,8.308c0.132,2.777,0.167,4.499,1.255,6.817c0.297,0.63-0.399,0.596-0.661,0.133
					c-0.264-0.465-0.993-3.642-1.785-4.369c-0.798-0.73-1.658-0.827-1.658,0.032c0,0.861-0.695,0.761-0.825-0.099
					c-0.133-0.859-0.156-1.847-2.746-1.523c-1.325,0.165-2.151,0.797-2.151,0.797L506.683,533.181z"/>
			</g>
			<g>
				<path fill="#004982" stroke="#000000" stroke-width="0.0943" stroke-linejoin="round" d="M490.432,540.736
					c2.827-0.839,9.532-2.998,9.223-10.413c-0.308-7.415-2.558-9.797-5.955-11.647c-1.366-0.664-2.824-0.62-2.824-0.62l-0.444-0.575
					c0,0-0.748-0.308-2.118-0.747c-1.366-0.443-3.706-0.334-4.279-0.245c-0.574,0.092-0.706-0.354-0.131-0.62
					c0.574-0.264,5.073-0.286,5.601-0.02c0.048-0.616-1.234-1.368-2.823-1.63c-1.587-0.268-3.968-0.268-4.502-0.972
					c-0.526-0.706-0.879-1.145-0.438-1.324c0.438-0.179,2.247,0.883,2.867,0.618c0.62-0.264,1.282-0.4,1.811-0.839
					c-0.754-0.706-0.881-1.501-0.486-2.34c0.395-0.837,2.031-2.517,6.356-1.765c4.322,0.753,10.897,5.163,12.971,7.769
					c2.074,2.6,4.587,5.469,3.706,11.165c-0.883,5.692-3.526,9.749-6.663,12.353c-3.133,2.606-6.971,6.797-6.971,6.797l-0.617-3.887
					L490.432,540.736z"/>
				
					<line fill="none" stroke="#000000" stroke-width="0.0943" stroke-linejoin="round" x1="486.427" y1="511.681" x2="487.129" y2="511.655"/>
			</g>
			<g>
				<path d="M489.861,512.256c0.008,0.167,0.155,0.298,0.33,0.294c0.179-0.004,0.317-0.145,0.308-0.312
					c-0.007-0.165-0.154-0.296-0.328-0.288C489.995,511.953,489.858,512.095,489.861,512.256z"/>
			</g>
			<g>
				<path fill="#E30613" stroke="#000000" stroke-width="0.0943" stroke-linejoin="round" d="M499.842,537.648
					c-4.108,2.634-9.131,4.827-14.295-0.135c-3.267-3.131-2.559-3.217-3.622-3.306c-1.058-0.087-1.808,0.264-1.986,0.662
					c0.841-0.046,1.943-0.31,2.826,0.97c0.884,1.28,1.192,2.648,0.708,3.044c-0.485,0.402-0.135-0.266-0.577,0.046
					c-0.438,0.308-0.131,0.797,0.618,1.407c0.752,0.624,0.884,0.36,1.149,0.535c0.266,0.177,0.969,1.763,1.413,2.073
					c0.441,0.306,4.985,1.765,8.385-0.529c-3.443,2.558-5.209,2.91-8.166,3.218c2.207,0.708,3.356,0.883,4.324,1.986
					c0.97,1.105,0.131,1.942,1.015,1.942c0.884,0,0.179-0.797,0.574-0.797s1.724,0.531,2.119,1.415
					c0.396,0.881,0.881,2.865,2.823,3.308c1.943,0.445,2.426-0.396,2.515-0.795c-0.925-0.04-1.014,0.974-2.426-0.175
					c-1.41-1.145-2.867-4.193-0.662-7.986c2.204-3.797,4.018-5.248,4.149-6.533c-0.749,0.487-1.238,0.616-1.238,0.616
					L499.842,537.648z"/>
			</g>
			<path fill="#E30613" stroke="#000000" stroke-width="0.0943" stroke-linejoin="round" d="M486.891,511.053
				c0.713,0.286,0.779,0.348,0.959,0.366c0.179,0.018,2.337-0.646,3.279-0.662c0.94-0.016,2.281,0.813,2.95,2.757
				c0.227-1.6-0.122-1.896-0.553-2.378c-0.426-0.479-1.199-0.781-1.708-0.795c0.302-0.26,1.049-0.233,1.281-0.247
				c-0.731-0.213-1.738-0.378-3.13,0.014c-1.391,0.4-1.834,1.002-1.999,0.998C487.804,511.103,486.891,511.053,486.891,511.053z"/>
			<g>
				<path fill="#E30613" stroke="#000000" stroke-width="0.0943" stroke-linejoin="round" d="M489.572,507.397
					c0.796-0.064,4.549,0.219,6.075-1.837c-0.033,0.664-0.449,1.209-1.143,1.638c0.91,0.115,2.153,0.099,3.125-0.064
					c0.977-0.167,2.5-0.815,2.939-1.674c-0.123,1.094-0.885,1.425-1.365,1.837c-0.481,0.415-0.564,0.827-1.673,0.845
					c1.125,0.249,2.515,0.795,3.51,0.944c0.993,0.147,3.112,0.282,4.63-1.209c-0.362,1.258-0.856,1.851-2.114,2.187
					c-1.257,0.328-1.378,0.411-2.038,0.443c0.844,0.863,1.808,1.938,3.08,3.145c1.274,1.209,3.225,3.177,6.021,1.423
					c-0.398,1.173-1.521,1.521-2.779,1.34c-1.257-0.181-2.448-0.465-3.408-1.026c-0.96-0.561-1.11-1.02-1.505-1.918
					c0.244,1.125,0.629,2.499,0.941,2.727c-0.443-0.197-1.578-1.405-1.824-2.018c-0.377,0.316-0.662,0.686-1.057,0.801
					c0.116-0.519,0.514-1.08-0.028-1.843c-0.548-0.763-1.519-1.598-1.822-1.934c0.231,0.942,0.495,1.773,0.345,2.117
					c-0.146,0.346-0.723,1.157-1.01,1.439c0.119-0.563,0.25-1.159,0.25-1.159s-0.528,1.01-0.793,1.243
					c-0.264,0.231-0.828,0.598-2.315,0.545c1.256-0.545,2.183-1.01,2.051-2.402c-0.134-1.39-0.45-2.411-1.659-3.388
					c-1.206-0.98-2.429-1.525-3.305-1.69c-0.879-0.167-2.007-0.167-2.431-0.296C489.839,507.48,489.572,507.397,489.572,507.397z"/>
				<path fill="none" stroke="#000000" stroke-width="0.0943" stroke-linejoin="round" d="M497.531,508.142
					c-0.38-0.032-0.991-0.066-0.991-0.066"/>
				<path fill="none" stroke="#000000" stroke-width="0.0943" stroke-linejoin="round" d="M494.505,507.198
					c-0.364,0.052-0.647,0.086-0.96,0.115"/>
			</g>
		</g>
	</g>
	<g>
		<path d="M319.958,574.728h2.494c2.447,0,4.376,1.255,4.376,3.545c0,2.228-1.709,3.608-3.812,3.608c-0.392,0-0.486,0-0.816-0.031
			v-1.192c0.267,0.031,0.345,0.031,0.596,0.031c1.412,0,2.51-0.878,2.51-2.322c0-1.631-1.208-2.369-3.012-2.369h-0.863v9.867h-1.475
			V574.728z"/>
		<path d="M333.478,583.528l-1.177-2.008h-2.18v4.345h-1.475v-11.137h2.542c2.572,0,4.408,1.114,4.408,3.357
			c0,1.192-0.502,2.29-1.867,2.933l1.066,1.789c1.004,1.647,1.538,1.914,2.432,2.039l-0.157,1.066
			C335.297,585.866,334.701,585.63,333.478,583.528z M330.999,575.952h-0.878v4.408c0,0,0.863,0.031,1.741,0.031
			c1.271,0,2.196-0.831,2.196-2.18C334.058,576.595,332.772,575.952,330.999,575.952z"/>
		<path d="M343.499,586.038c-3.341,0-5.694-2.462-5.694-5.882c0-3.341,2.463-5.6,5.882-5.6c3.498,0,5.804,2.259,5.804,5.584
			C349.491,583.67,347.091,586.038,343.499,586.038z M343.546,575.842c-2.494,0-4.204,1.788-4.204,4.172
			c0,2.667,1.679,4.737,4.141,4.737h0.141c2.714,0,4.33-1.835,4.33-4.471C347.954,577.615,346.26,575.842,343.546,575.842z"/>
		<path d="M354.131,585.881l-4.188-11.153h1.6l3.466,9.568l3.388-9.568h1.49l-4.078,11.122L354.131,585.881z"/>
		<path d="M361.063,585.866v-11.137h5.977v1.239h-4.502v3.624h4.157v1.208h-4.157v3.812h4.878l-0.11,1.255H361.063z"/>
		<path d="M369.594,574.728h1.6l6.525,8.894v-8.894h1.396v11.137h-1.568l-6.557-8.972v8.972h-1.396V574.728z"/>
		<path d="M387.003,586.022c-3.687,0-6.071-2.165-6.071-5.678c0-3.608,2.369-5.772,6.086-5.772c1.082,0,2.196,0.157,3.435,0.659
			l-0.125,1.286c-1.317-0.47-2.306-0.659-3.357-0.659c-2.902,0-4.518,1.647-4.518,4.392c0,2.463,1.631,4.486,4.674,4.486
			c0.895,0,2.212-0.188,3.687-0.863l-0.094,1.333C389.419,585.803,388.148,586.022,387.003,586.022z"/>
		<path d="M392.929,585.866v-11.137h5.976v1.239h-4.501v3.624h4.157v1.208h-4.157v3.812h4.878l-0.109,1.255H392.929z"/>
		<path d="M363.494,598.454h-4.518l-1.098,3.153h-1.49l4-11.122l1.631-0.031l4.282,11.153h-1.616L363.494,598.454z M359.353,597.277
			h3.718l-1.929-5.255L359.353,597.277z"/>
		<path d="M367.821,601.606v-11.137h1.475v9.882h4.847l-0.11,1.255H367.821z"/>
		<path d="M375.929,590.469h2.494c2.447,0,4.376,1.255,4.376,3.545c0,2.227-1.71,3.607-3.812,3.607c-0.392,0-0.486,0-0.816-0.031
			v-1.192c0.267,0.032,0.345,0.032,0.596,0.032c1.412,0,2.51-0.878,2.51-2.322c0-1.631-1.208-2.369-3.012-2.369h-0.863v9.867h-1.475
			V590.469z"/>
		<path d="M384.617,601.606v-11.137h5.977v1.239h-4.502v3.624h4.157v1.208h-4.157v3.812h4.878l-0.11,1.255H384.617z"/>
		<path d="M395.517,601.763c-0.91,0-1.96-0.141-2.949-0.533l-0.031-1.333c1.317,0.455,2.117,0.565,2.98,0.565
			c1.804,0,2.353-0.91,2.353-1.788c0-0.737-0.282-1.318-1.741-1.977l-0.878-0.392c-1.882-0.816-2.447-1.741-2.431-3.027
			c0-1.6,1.208-2.965,3.78-2.965c0.69,0,1.584,0.079,2.494,0.392l-0.126,1.255c-0.988-0.298-1.741-0.392-2.321-0.392
			c-1.647,0-2.274,0.69-2.274,1.584c0,0.753,0.314,1.271,1.804,1.929l0.879,0.376c1.897,0.784,2.446,1.82,2.446,3.075
			C399.501,600.054,398.435,601.763,395.517,601.763z"/>
		<path d="M308.698,617.504c-3.686,0-6.07-2.165-6.07-5.678c0-3.608,2.369-5.772,6.086-5.772c1.082,0,2.196,0.157,3.435,0.659
			l-0.125,1.286c-1.318-0.47-2.306-0.659-3.357-0.659c-2.902,0-4.518,1.647-4.518,4.392c0,2.463,1.631,4.486,4.675,4.486
			c0.894,0,2.211-0.188,3.686-0.863l-0.094,1.333C311.114,617.284,309.844,617.504,308.698,617.504z"/>
		<path d="M319.362,617.519c-3.341,0-5.694-2.462-5.694-5.882c0-3.341,2.463-5.6,5.882-5.6c3.498,0,5.804,2.259,5.804,5.584
			C325.355,615.151,322.955,617.519,319.362,617.519z M319.41,607.324c-2.494,0-4.204,1.788-4.204,4.172
			c0,2.667,1.679,4.737,4.141,4.737h0.142c2.713,0,4.329-1.835,4.329-4.471C323.818,609.096,322.123,607.324,319.41,607.324z
			 M319.347,603.685l-2.133,1.663l-0.721-0.769l2.933-2.259l2.824,2.196l-0.832,0.831L319.347,603.685z"/>
		<path d="M330.779,607.465v9.882h-1.458v-9.882h-3.545v-1.255h8.659l-0.094,1.255H330.779z"/>
		<path d="M335.844,617.347V606.21h5.977v1.239h-4.502v3.624h4.157v1.208h-4.157v3.812h4.878l-0.11,1.255H335.844z"/>
		<path d="M350.65,617.378c-1.255,0-2.432,0-3.796-0.031V606.21c1.161-0.016,1.945-0.016,3.592-0.016
			c3.576,0,6.494,1.741,6.494,5.38C356.94,615.308,354.43,617.378,350.65,617.378z M350.367,607.449c-0.988,0-1.474,0-2.039,0.016
			v8.627c0.816,0.031,1.427,0.031,2.384,0.031c2.886,0,4.706-1.6,4.706-4.392C355.418,608.72,353.144,607.449,350.367,607.449z"/>
		<path d="M358.443,609.943l-0.832-0.502c0.847-0.941,1.098-1.647,1.098-2.165c0-0.361-0.141-0.737-0.612-1.192
			c0.204-0.361,0.549-0.549,0.863-0.549c0.722,0,1.129,0.706,1.114,1.443C360.074,607.512,359.948,608.422,358.443,609.943z"/>
		<path d="M366.301,614.194h-4.518l-1.098,3.153h-1.49l4-11.122l1.631-0.031l4.282,11.153h-1.616L366.301,614.194z M362.16,613.018
			h3.718l-1.929-5.254L362.16,613.018z"/>
		<path d="M369.75,617.347v-1.098l5.882-8.784h-5.804v-1.255h7.702v1.004l-5.961,8.863h6.525l-0.11,1.271H369.75z"/>
		<path d="M384.211,617.519c-3.169,0-4.486-1.663-4.486-5.051v-6.259h1.475v6.086c0,2.478,0.753,3.937,3.153,3.937
			c2.18,0,3.027-1.412,3.027-3.78v-6.243h1.38v6.432C388.759,615.653,387.285,617.519,384.211,617.519z"/>
		<path d="M395.894,615.01l-1.176-2.008h-2.181v4.345h-1.475V606.21h2.542c2.573,0,4.408,1.114,4.408,3.357
			c0,1.192-0.502,2.29-1.867,2.933l1.067,1.789c1.004,1.647,1.537,1.914,2.431,2.039l-0.156,1.066
			C397.714,617.347,397.117,617.112,395.894,615.01z M393.416,607.434h-0.878v4.408c0,0,0.863,0.031,1.741,0.031
			c1.271,0,2.196-0.831,2.196-2.18C396.475,608.077,395.188,607.434,393.416,607.434z"/>
	</g>
	<g>
		<g>
			<path d="M263.497,521.915l-2.027-3.625h-2.924v9.123h-7.291v-27.68h8.382c7.719,0,12.826,3.002,12.826,9.279
				c0,2.846-1.248,5.341-4.015,6.784l1.91,3.041c1.91,3.119,2.768,3.548,4.717,3.782l-0.546,5.068
				C267.669,527.607,266.265,527.139,263.497,521.915z M259.871,505.424h-1.326v7.797c0,0,1.326,0.078,2.729,0.078
				c2.184,0,3.665-1.248,3.665-3.704C264.94,506.632,262.873,505.424,259.871,505.424z"/>
			<path d="M278.58,527.412v-27.68h16.53v5.965h-9.24v4.834h8.538v5.848h-8.538v4.99h10.41l-0.429,6.043H278.58z"/>
			<path d="M314.912,527.802c-9.747,0-15.79-4.678-15.79-14.347c0-9.045,6.394-14.113,15.829-14.113c2.339,0,5.614,0.39,8.343,1.208
				l-0.624,5.926c-3.392-0.897-5.809-1.092-7.719-1.092c-5.263,0-8.304,2.495-8.304,7.68c0,5.692,3.236,8.733,7.836,8.733
				c0.741,0,1.676-0.078,2.69-0.351v-7.369h7.291v8.499c0,1.95,0.078,3.548,0.078,3.548
				C320.994,527.217,317.797,527.802,314.912,527.802z"/>
			<path d="M329.176,499.732h7.291v27.68h-7.291V499.732z"/>
			<path d="M354.516,527.802c-8.655,0-14.542-5.77-14.542-14.502c0-8.616,6.043-13.957,14.971-13.957
				c8.772,0,14.503,5.341,14.503,13.606C369.447,521.798,363.561,527.802,354.516,527.802z M354.438,505.346
				c-4.405,0-6.979,3.236-6.979,7.603c0,4.795,2.729,8.889,7.174,8.889h0.234c4.639,0,7.095-3.782,7.095-8.46
				C361.962,508.543,359.194,505.346,354.438,505.346z"/>
			<path d="M372.951,499.732h8.07l11.618,16.959v-16.959h6.939v27.68h-8.226l-11.462-16.92v16.92h-6.94V499.732z"/>
			<path d="M329.762,564.624c-2.144,0-5.653-0.39-8.148-1.286l-0.117-6.004c3.509,1.014,6.043,1.403,7.914,1.403
				c2.768,0,3.509-1.208,3.509-2.339c0-0.936-0.351-1.715-2.651-2.651l-1.638-0.663c-5.809-2.066-6.979-5.029-6.939-8.187
				c0.039-4.367,3.236-8.733,10.799-8.733c1.949,0,4.795,0.234,7.173,1.014l-0.584,5.614c-2.612-0.702-4.562-0.896-5.887-0.896
				c-2.885,0-3.704,1.052-3.704,2.261c0,1.014,0.468,1.793,3.431,2.924l1.638,0.624c5.341,1.911,6.472,4.834,6.472,7.915
				C341.029,559.4,338.573,564.624,329.762,564.624z"/>
			<path d="M357.282,564.664c-8.889,0-12.553-4.405-12.553-13.333v-14.776h7.291v15.049c0,4.405,1.559,6.822,5.965,6.822
				c3.704,0,5.107-2.3,5.107-6.511v-15.36h6.979v14.659C370.07,559.869,365.899,564.664,357.282,564.664z"/>
			<path d="M385.387,564.274c-3.548,0-5.965,0-10.644-0.039v-27.68h9.513c9.357,0,16.531,4.6,16.531,13.567
				C400.787,559.557,394.744,564.274,385.387,564.274z M384.724,542.48c-1.208,0-1.793,0-2.69,0.039v15.711
				c1.014,0.078,2.027,0.078,3.236,0.078c5.068,0,8.031-2.651,8.031-7.603C393.301,545.093,389.52,542.48,384.724,542.48z"/>
		</g>
		<polygon fill="#F9B000" points="295.102,497.513 278.528,497.513 295.102,492.602 		"/>
	</g>
</g>
</svg>
