<?xml version="1.0" encoding="utf-8"?>
<!-- Generator: Adobe Illustrator 24.2.3, SVG Export Plug-In . SVG Version: 6.00 Build 0)  -->
<svg version="1.1" xmlns="http://www.w3.org/2000/svg" xmlns:xlink="http://www.w3.org/1999/xlink" x="0px" y="0px"
	 viewBox="0 0 120.764 154.03" enable-background="new 0 0 120.764 154.03" xml:space="preserve">
<g id="Calque_1">
	<rect x="0.25" y="0.25" fill="#FFFFFF" width="120.263" height="79.613"/>
	<g>
		<defs>
			<rect id="SVGID_1_" width="120.764" height="154.03"/>
		</defs>
		<clipPath id="SVGID_2_">
			<use xlink:href="#SVGID_1_"  overflow="visible"/>
		</clipPath>
		
			<rect x="0.25" y="0.25" clip-path="url(#SVGID_2_)" fill="none" stroke="#000000" stroke-width="0.5" width="120.264" height="79.612"/>
	</g>
	<rect x="0.501" y="80.158" fill="#FFFFFF" width="120.263" height="73.872"/>
	<g>
		<defs>
			<rect id="SVGID_3_" width="120.764" height="154.03"/>
		</defs>
		<clipPath id="SVGID_4_">
			<use xlink:href="#SVGID_3_"  overflow="visible"/>
		</clipPath>
		
			<rect x="0.25" y="79.916" clip-path="url(#SVGID_4_)" fill="none" stroke="#000000" stroke-width="0.482" width="120.264" height="73.872"/>
	</g>
	<rect x="16.885" y="14.985" fill="#FFFFFF" width="85.254" height="28.615"/>
	<g>
		<defs>
			<rect id="SVGID_5_" width="120.764" height="154.03"/>
		</defs>
		<clipPath id="SVGID_6_">
			<use xlink:href="#SVGID_5_"  overflow="visible"/>
		</clipPath>
		<path clip-path="url(#SVGID_6_)" d="M21.252,64.092c-0.315,0-0.493-0.041-0.67-0.16c-0.282-0.187-0.578-0.697-0.748-0.984
			c-0.289-0.502-0.612-1.037-0.918-1.488c-0.051,0.009-0.092,0.009-0.127,0.009c-0.084,0-0.153-0.009-0.237-0.009v0.451
			c0,0.23,0.008,0.457,0.008,0.687c0.008,0.457,0.016,0.655,0.084,0.832c0.086,0.221,0.238,0.332,0.52,0.358v0.236l-0.196-0.008
			c-0.222-0.008-0.527,0-0.925,0c-0.393,0-0.696-0.008-0.918,0l-0.203,0.008v-0.236c0.212-0.018,0.314-0.061,0.417-0.17
			c0.092-0.112,0.151-0.264,0.168-0.459c0.026-0.254,0.034-0.408,0.034-1.248v-1.428c0-1.035-0.034-1.291-0.092-1.527
			c-0.061-0.229-0.238-0.325-0.527-0.356v-0.238c0.169,0.016,0.339,0.008,0.509,0.008c0.442,0,0.578,0,1.104-0.026
			c0.459-0.017,0.722-0.025,0.926-0.025c0.578,0,0.925,0.084,1.214,0.289c0.323,0.229,0.534,0.67,0.534,1.111
			c0,0.698-0.457,1.264-1.239,1.555c0.323,0.408,0.577,0.813,0.875,1.281c0.27,0.434,0.541,0.807,0.754,1.02
			c0.119,0.127,0.198,0.17,0.358,0.213v0.236C21.736,64.075,21.516,64.092,21.252,64.092 M19.068,58.776
			c-0.168,0-0.322,0.027-0.508,0.068c0,0.502-0.008,1.411-0.008,2.116c0.092,0.017,0.262,0.023,0.373,0.023
			c0.696,0,1.164-0.432,1.164-1.094C20.089,59.245,19.656,58.776,19.068,58.776"/>
		<path clip-path="url(#SVGID_6_)" d="M24.045,58.89l-0.331-0.196l0.694-1.025l0.806,0.148L24.045,58.89z M25.609,63.921
			c-0.064,0.104-0.135,0.125-0.521,0.125c-0.237,0-0.469-0.014-0.708-0.021c-0.335-0.006-0.673-0.02-1.009-0.02
			c-0.338,0-0.674,0.006-1.01,0.02v-0.196c0.314-0.027,0.455-0.211,0.482-0.519c0.022-0.211,0.022-0.436,0.022-0.799v-1.986
			c0-0.372-0.022-0.54-0.076-0.688c-0.065-0.182-0.19-0.266-0.428-0.295v-0.195h3.281c0,0.203-0.006,0.414-0.006,0.617
			c0,0.168-0.007,0.328,0.006,0.498h-0.252c-0.049-0.541-0.281-0.687-1.115-0.687c-0.154,0-0.357,0.005-0.525,0.013
			c-0.014,0.274-0.022,0.365-0.022,0.772v0.812c0.106,0.01,0.19,0.01,0.317,0.01c0.728,0,0.953-0.106,0.994-0.486h0.254
			c-0.016,0.111-0.016,0.345-0.016,0.695c0,0.359,0.01,0.568,0.016,0.68H25.04c-0.02-0.399-0.209-0.498-0.932-0.498
			c-0.127,0-0.252,0.007-0.379,0.007c0,0.442,0.008,0.885,0.008,1.327c0,0.294,0.049,0.392,0.217,0.435
			c0.105,0.027,0.265,0.035,0.482,0.035c0.758,0,1.026-0.17,1.188-0.744l0.271,0.055C25.798,63.38,25.685,63.786,25.609,63.921"/>
		<path clip-path="url(#SVGID_6_)" d="M28.533,61.94c-0.07,0-0.105,0-0.197-0.006l-0.155-0.357c0.661-0.043,1.026-0.366,1.026-0.899
			c0-0.56-0.387-0.961-0.92-0.961c-0.084,0-0.154,0.006-0.266,0.03c0,0.433-0.013,0.869-0.013,1.304v1.229
			c0,0.918,0.005,1.072,0.076,1.254c0.064,0.181,0.189,0.273,0.428,0.295v0.195l-0.168-0.006c-0.182-0.008-0.436-0.008-0.772-0.008
			c-0.33,0-0.59,0-0.766,0.008l-0.166,0.006v-0.195c0.315-0.028,0.456-0.211,0.483-0.52c0.021-0.211,0.021-0.336,0.021-1.029v-1.756
			c0-0.371-0.021-0.539-0.078-0.688c-0.062-0.181-0.187-0.265-0.426-0.294v-0.196c0.084,0.006,0.02,0.006,0.323,0.006
			c0.119,0,0.287,0,0.511-0.006c0.358-0.013,0.715-0.035,1.073-0.035c0.996,0,1.591,0.49,1.591,1.305
			C30.138,61.381,29.459,61.94,28.533,61.94"/>
		<path clip-path="url(#SVGID_6_)" d="M34.906,59.698c-0.076,0.104-0.111,0.244-0.125,0.525c-0.016,0.301-0.021,0.534-0.021,0.969
			c0,0.16,0.005,0.645,0.005,1.129c0,0.49-0.076,0.785-0.279,1.08c-0.322,0.471-0.857,0.709-1.557,0.709
			c-0.441,0-0.779-0.086-1.093-0.295c-0.493-0.316-0.682-0.73-0.682-1.474c0-0.756,0.016-1.086,0.016-1.334
			c0-0.356,0.021-0.727-0.043-1.08c-0.043-0.25-0.176-0.356-0.471-0.385v-0.196l0.16,0.006C31,59.36,31.26,59.36,31.595,59.36
			c0.338,0,0.596,0,0.78-0.008l0.162-0.006v0.196c-0.219,0.029-0.324,0.086-0.393,0.205c-0.064,0.103-0.092,0.246-0.099,0.553
			c-0.014,0.443-0.02,0.877-0.02,1.32c0,1.205,0.027,1.435,0.244,1.689c0.17,0.198,0.455,0.33,0.791,0.33
			c0.471,0,0.928-0.238,1.069-0.711c0.091-0.298,0.105-0.517,0.105-1.308v-0.695c0-0.801-0.021-1.045-0.099-1.165
			c-0.077-0.126-0.182-0.197-0.364-0.218v-0.196c0.28,0.014,0.377,0.014,0.729,0.014c0.357,0,0.455,0,0.736-0.014v0.196
			C35.083,59.563,34.984,59.606,34.906,59.698"/>
		<path clip-path="url(#SVGID_6_)" d="M39.219,63.694c-0.328,0.254-0.699,0.338-1.416,0.338c-0.379,0-0.766-0.027-1.143-0.027
			c-0.154,0-0.441,0-0.638,0.014l-0.084,0.005v-0.195c0.33-0.027,0.455-0.195,0.484-0.519c0.021-0.211,0.027-0.336,0.027-1.03
			v-1.328c0-0.652-0.006-0.933-0.078-1.115c-0.068-0.182-0.195-0.266-0.433-0.295v-0.195c0.322,0.013,0.511,0.013,0.961,0.013
			c0.406,0,1.015-0.021,1.421-0.021c0.649,0,1.237,0.309,1.237,1.039c0,0.539-0.338,0.904-1.004,1.072
			c0.744,0.149,1.137,0.576,1.137,1.272C39.69,63.142,39.535,63.456,39.219,63.694 M37.692,59.712c-0.127,0-0.254,0.012-0.379,0.012
			c-0.008,0.457-0.022,1.242-0.03,1.537c0.076,0.008,0.176,0.015,0.309,0.015c0.687,0,1.082-0.289,1.082-0.793
			C38.674,59.999,38.307,59.712,37.692,59.712 M37.713,61.669c-0.121,0-0.246,0.008-0.43,0.02c-0.006,0.191-0.006,0.226-0.006,0.548
			v0.412c0,0.395,0.014,0.604,0.063,0.745c0.057,0.175,0.225,0.259,0.519,0.259c0.596,0,0.932-0.33,0.932-0.918
			C38.791,62.083,38.371,61.669,37.713,61.669"/>
		<path clip-path="url(#SVGID_6_)" d="M43.65,63.929c-0.061,0.096-0.146,0.117-0.498,0.117c-0.174,0-0.357-0.006-0.531-0.013
			c-0.436-0.014-0.83-0.028-1.307-0.028c-0.357,0-0.594,0.006-0.82,0.02v-0.196c0.176-0.013,0.267-0.048,0.343-0.138
			C40.964,63.541,41,63.361,41,62.847c0-0.352,0.005-0.633,0.005-0.996v-0.752c0-0.945-0.005-1.07-0.076-1.262
			c-0.062-0.181-0.195-0.265-0.435-0.295v-0.195l0.176,0.006c0.189,0.008,0.449,0.008,0.798,0.008c0.344,0,0.612,0,0.793-0.008
			l0.176-0.006v0.195c-0.357,0-0.512,0.19-0.555,0.528c-0.013,0.119-0.019,0.23-0.019,1.029v1.172c0,0.974,0.006,1.096,0.098,1.193
			c0.076,0.078,0.224,0.113,0.527,0.113c0.385,0,0.594-0.043,0.771-0.14c0.196-0.106,0.342-0.317,0.412-0.612l0.268,0.071
			C43.861,63.304,43.729,63.808,43.65,63.929"/>
		<path clip-path="url(#SVGID_6_)" d="M46.09,64.019c-0.176-0.008-0.436-0.008-0.764-0.008c-0.338,0-0.59,0-0.771,0.008
			l-0.168,0.006V63.83c0.33-0.028,0.457-0.196,0.484-0.52c0.022-0.211,0.028-0.336,0.028-1.029v-1.182
			c0-0.182-0.006-0.371-0.006-0.574c0-0.371-0.016-0.539-0.073-0.688c-0.064-0.181-0.195-0.265-0.433-0.295v-0.195l0.168,0.006
			c0.181,0.008,0.433,0.008,0.771,0.008c0.328,0,0.588,0,0.764-0.008l0.168-0.006v0.195c-0.299,0.022-0.453,0.213-0.482,0.528
			c-0.022,0.203-0.022,0.4-0.022,1.029v1.182c0,0.918,0.006,1.072,0.078,1.254c0.061,0.181,0.188,0.273,0.426,0.295v0.195
			L46.09,64.019z"/>
		<path clip-path="url(#SVGID_6_)" d="M52.647,65.288c-0.545,0-1.127-0.168-1.682-0.477c-0.316-0.176-0.76-0.478-1.08-0.744
			c-0.238,0.035-0.33,0.043-0.555,0.043c-1.418,0-2.357-0.928-2.357-2.322c0-1.496,1.015-2.526,2.504-2.526
			c1.443,0,2.406,0.926,2.406,2.315c0,0.988-0.506,1.865-1.303,2.273c0.25,0.125,0.502,0.266,0.748,0.412
			c0.717,0.436,1.207,0.62,1.67,0.62c0.287,0,0.526-0.065,0.807-0.206l0.092,0.249C53.551,65.163,53.125,65.288,52.647,65.288
			 M49.338,59.739c-0.857,0-1.467,0.715-1.467,1.719c0,1.22,0.721,2.181,1.641,2.181c0.863,0,1.472-0.73,1.472-1.748
			C50.984,60.686,50.262,59.739,49.338,59.739"/>
		<path clip-path="url(#SVGID_6_)" d="M56.742,59.698c-0.076,0.104-0.111,0.244-0.125,0.525c-0.018,0.301-0.021,0.534-0.021,0.969
			c0,0.16,0.003,0.645,0.003,1.129c0,0.49-0.074,0.785-0.277,1.08c-0.324,0.471-0.857,0.709-1.559,0.709
			c-0.441,0-0.777-0.086-1.093-0.295c-0.491-0.316-0.68-0.73-0.68-1.474c0-0.756,0.014-1.086,0.014-1.334
			c0-0.356,0.021-0.727-0.041-1.08c-0.045-0.25-0.178-0.356-0.471-0.385v-0.196l0.162,0.006c0.182,0.008,0.442,0.008,0.777,0.008
			c0.338,0,0.598,0,0.78-0.008l0.16-0.006v0.196c-0.215,0.029-0.322,0.086-0.393,0.205c-0.06,0.103-0.091,0.246-0.097,0.553
			c-0.014,0.443-0.02,0.877-0.02,1.32c0,1.205,0.026,1.435,0.244,1.689c0.168,0.198,0.457,0.33,0.791,0.33
			c0.473,0,0.928-0.238,1.067-0.711c0.092-0.298,0.105-0.517,0.105-1.308v-0.695c0-0.801-0.021-1.045-0.096-1.165
			c-0.078-0.126-0.183-0.197-0.367-0.218v-0.196c0.282,0.014,0.381,0.014,0.731,0.014c0.357,0,0.457,0,0.736-0.014v0.196
			C56.916,59.563,56.818,59.606,56.742,59.698"/>
		<path clip-path="url(#SVGID_6_)" d="M61.018,63.921c-0.061,0.104-0.129,0.125-0.516,0.125c-0.238,0-0.473-0.014-0.709-0.021
			c-0.337-0.006-0.675-0.02-1.011-0.02c-0.334,0-0.674,0.006-1.008,0.02v-0.196c0.314-0.027,0.455-0.211,0.482-0.519
			c0.02-0.211,0.02-0.436,0.02-0.799v-1.986c0-0.372-0.02-0.54-0.074-0.688c-0.065-0.182-0.192-0.266-0.428-0.295v-0.195h3.281
			c0,0.203-0.006,0.414-0.006,0.617c0,0.168-0.008,0.328,0.006,0.498h-0.254c-0.045-0.541-0.279-0.687-1.115-0.687
			c-0.152,0-0.355,0.005-0.523,0.013c-0.016,0.274-0.022,0.365-0.022,0.772v0.812c0.104,0.01,0.19,0.01,0.315,0.01
			c0.73,0,0.955-0.106,0.996-0.486h0.252c-0.014,0.111-0.014,0.345-0.014,0.695c0,0.359,0.008,0.568,0.014,0.68h-0.252
			c-0.02-0.399-0.209-0.498-0.934-0.498c-0.127,0-0.254,0.007-0.377,0.007c0,0.442,0.006,0.885,0.006,1.327
			c0,0.294,0.051,0.392,0.219,0.435c0.107,0.027,0.265,0.035,0.482,0.035c0.76,0,1.024-0.17,1.186-0.744l0.273,0.055
			C61.211,63.38,61.096,63.786,61.018,63.921"/>
		<path clip-path="url(#SVGID_6_)" d="M67.51,59.729c-0.01-0.613-0.365-0.85-1.324-0.85c-0.196,0-0.385,0.008-0.596,0.026
			c-0.017,0.586-0.017,0.992-0.017,1.918c0.202,0.01,0.306,0.017,0.45,0.017c0.789,0,1.025-0.136,1.072-0.595h0.301
			c0,0.238-0.014,0.486-0.014,0.722c0,0.315,0.014,0.637,0.014,0.953h-0.301c-0.063-0.511-0.258-0.613-1.15-0.613
			c-0.152,0-0.211,0-0.372,0.01v0.951c0,0.186,0,0.391,0.009,0.611c0.018,0.467,0.049,0.873,0.604,0.909v0.236l-0.203-0.008
			c-0.213-0.008-0.527-0.008-0.928-0.008c-0.406,0-0.713,0-0.934,0.008l-0.201,0.008v-0.236c0.381-0.036,0.549-0.254,0.584-0.629
			c0.023-0.254,0.023-0.409,0.023-1.248v-2.123c0-0.452-0.023-0.655-0.09-0.832c-0.078-0.221-0.23-0.325-0.518-0.356v-0.238h3.904
			c-0.018,0.162-0.018,0.431-0.018,0.787c0,0.342,0,0.393,0.018,0.58H67.51z"/>
		<path clip-path="url(#SVGID_6_)" d="M72.205,64.082c-0.26,0-0.408-0.036-0.555-0.133c-0.232-0.155-0.477-0.576-0.619-0.815
			c-0.237-0.412-0.506-0.853-0.754-1.226c-0.045,0.008-0.08,0.008-0.108,0.008c-0.069,0-0.126-0.008-0.194-0.008v0.373
			c0,0.187,0.006,0.377,0.006,0.566c0.008,0.379,0.014,0.539,0.068,0.688c0.072,0.181,0.197,0.273,0.432,0.295v0.195l-0.162-0.006
			c-0.184-0.008-0.438,0-0.766,0c-0.322,0-0.576-0.008-0.759,0l-0.167,0.006V63.83c0.174-0.014,0.26-0.049,0.342-0.139
			c0.08-0.092,0.127-0.219,0.141-0.381c0.021-0.211,0.029-0.336,0.029-1.029v-1.182c0-0.855-0.029-1.064-0.078-1.262
			c-0.047-0.189-0.193-0.265-0.434-0.294v-0.196c0.139,0.014,0.281,0.006,0.422,0.006c0.365,0,0.477,0,0.91-0.019
			c0.378-0.014,0.596-0.022,0.764-0.022c0.477,0,0.766,0.07,1.006,0.238c0.264,0.19,0.44,0.555,0.44,0.92
			c0,0.574-0.38,1.045-1.024,1.283c0.268,0.334,0.477,0.674,0.723,1.059c0.225,0.357,0.447,0.666,0.627,0.842
			c0.096,0.105,0.158,0.14,0.293,0.176v0.195C72.604,64.067,72.422,64.082,72.205,64.082 M70.398,59.688
			c-0.137,0-0.264,0.023-0.418,0.059c0,0.414-0.006,1.164-0.006,1.746c0.074,0.013,0.217,0.021,0.309,0.021
			c0.572,0,0.959-0.357,0.959-0.906C71.242,60.075,70.885,59.688,70.398,59.688"/>
		<path clip-path="url(#SVGID_6_)" d="M77.264,64.019c-0.174-0.008-0.426-0.008-0.748-0.008c-0.328,0-0.582,0-0.76,0.008
			l-0.162,0.005v-0.195c0.226-0.014,0.359-0.135,0.359-0.33c0-0.07-0.02-0.168-0.09-0.379c-0.086-0.26-0.141-0.435-0.225-0.674
			h-1.348l-0.141,0.408c-0.104,0.315-0.16,0.547-0.16,0.666c0,0.204,0.092,0.295,0.316,0.309v0.195
			c-0.27-0.005-0.365-0.013-0.701-0.013c-0.33,0-0.43,0.008-0.695,0.013v-0.195c0.104-0.014,0.139-0.027,0.219-0.098
			c0.131-0.119,0.264-0.365,0.477-0.898l0.666-1.699c0.182-0.455,0.455-1.192,0.645-1.787h0.477c0.064,0.216,0.211,0.56,0.309,0.814
			l0.988,2.529c0.168,0.43,0.289,0.682,0.379,0.844c0.098,0.168,0.195,0.252,0.367,0.295v0.195L77.264,64.019z M74.99,60.581
			c-0.178,0.477-0.43,1.096-0.537,1.437h1.037L74.99,60.581z"/>
		<path clip-path="url(#SVGID_6_)" d="M82.258,59.755c-0.08,0.125-0.092,0.244-0.105,0.607c-0.021,0.633-0.029,1.614-0.029,2.084
			v1.075c0,0.162,0.02,0.408,0.02,0.504h-0.477c-0.453-0.596-1.402-1.754-1.402-1.754c-0.11-0.139-0.986-1.219-1.43-1.76
			c0,0.146-0.008,0.055-0.008,0.512v0.457c0,0.525,0.008,1.045,0.031,1.57c0.014,0.295,0.041,0.443,0.109,0.574
			c0.072,0.141,0.178,0.197,0.381,0.205v0.196c-0.248-0.014-0.496-0.014-0.744-0.014c-0.254,0-0.498,0-0.752,0.014v-0.196
			c0.463-0.013,0.477-0.4,0.492-0.763c0.006-0.297,0.014-0.541,0.014-0.991v-1.478c0-0.584-0.029-0.725-0.133-0.879
			c-0.068-0.111-0.16-0.154-0.373-0.176v-0.195c0.234,0.013,0.314,0.013,0.613,0.013c0.285,0,0.369,0,0.6-0.013
			c0.086,0.154,0.219,0.295,0.703,0.885c0.688,0.834,1.303,1.541,1.886,2.271v-1.529c0-0.701-0.013-0.877-0.048-1.059
			c-0.051-0.226-0.184-0.338-0.443-0.373v-0.195c0.289,0.013,0.385,0.013,0.741,0.013c0.36,0,0.458,0,0.745-0.013v0.195
			C82.461,59.55,82.355,59.585,82.258,59.755"/>
		<path clip-path="url(#SVGID_6_)" d="M87.15,63.856c-0.453,0.184-0.855,0.254-1.41,0.254l-0.063,0.279c0.037-0.008,0.106,0,0.133,0
			c0.268,0,0.441,0.19,0.441,0.422c0,0.377-0.301,0.645-0.777,0.645c-0.141,0-0.266-0.03-0.42-0.09l0.096-0.274
			c0.092,0.035,0.178,0.055,0.254,0.055c0.197,0,0.33-0.098,0.33-0.273c0-0.141-0.072-0.223-0.174-0.223
			c-0.061,0-0.105,0.019-0.156,0.055l-0.152-0.043l0.139-0.569c-0.615-0.054-1.066-0.258-1.445-0.652
			c-0.434-0.441-0.666-1.045-0.666-1.754c0-1.514,0.975-2.426,2.582-2.426c0.483,0,0.953,0.071,1.359,0.203
			c-0.016,0.162-0.016,0.323-0.016,0.477c0,0.119,0.01,0.373,0.016,0.533h-0.275c-0.109-0.498-0.512-0.764-1.146-0.764
			c-0.988,0-1.592,0.659-1.592,1.752c0,1.264,0.707,2.182,1.684,2.182c0.59,0,0.988-0.293,1.146-0.853l0.27,0.054
			C87.24,63.085,87.18,63.485,87.15,63.856"/>
		<path clip-path="url(#SVGID_6_)" d="M92.018,64.019c-0.176-0.008-0.428-0.008-0.75-0.008c-0.328,0-0.582,0-0.76,0.008
			l-0.158,0.005v-0.195c0.223-0.014,0.355-0.135,0.355-0.33c0-0.07-0.02-0.168-0.09-0.379c-0.084-0.26-0.141-0.435-0.225-0.674
			h-1.348l-0.139,0.408c-0.105,0.315-0.162,0.547-0.162,0.666c0,0.204,0.09,0.295,0.317,0.309v0.195
			c-0.267-0.005-0.368-0.013-0.704-0.013c-0.328,0-0.426,0.008-0.693,0.013v-0.195c0.107-0.014,0.141-0.027,0.217-0.098
			c0.133-0.119,0.266-0.365,0.477-0.898l0.668-1.699c0.182-0.455,0.453-1.192,0.645-1.787h0.477c0.064,0.216,0.211,0.56,0.307,0.814
			l0.99,2.529c0.168,0.43,0.289,0.682,0.379,0.844c0.098,0.168,0.197,0.252,0.365,0.295v0.195L92.018,64.019z M89.746,60.581
			c-0.182,0.477-0.436,1.096-0.541,1.437h1.037L89.746,60.581z"/>
		<path clip-path="url(#SVGID_6_)" d="M94.309,64.019c-0.174-0.008-0.434-0.008-0.762-0.008c-0.34,0-0.59,0-0.771,0.008
			l-0.172,0.006V63.83c0.33-0.028,0.457-0.196,0.486-0.52c0.02-0.211,0.025-0.336,0.025-1.029v-1.182
			c0-0.182-0.006-0.371-0.006-0.574c0-0.371-0.014-0.539-0.068-0.688c-0.064-0.181-0.197-0.265-0.438-0.295v-0.195l0.172,0.006
			c0.182,0.008,0.432,0.008,0.771,0.008c0.328,0,0.588,0,0.762-0.008l0.17-0.006v0.195c-0.303,0.022-0.455,0.213-0.484,0.528
			c-0.021,0.203-0.021,0.4-0.021,1.029v1.182c0,0.918,0.006,1.072,0.076,1.254c0.066,0.181,0.191,0.273,0.43,0.295v0.195
			L94.309,64.019z"/>
		<path clip-path="url(#SVGID_6_)" d="M96.488,64.11c-0.404,0-0.699-0.057-1.176-0.238c-0.021-0.268-0.07-0.674-0.127-1.012
			l0.266-0.043c0.17,0.568,0.541,0.865,1.08,0.865c0.496,0,0.836-0.261,0.836-0.652c0-0.316-0.217-0.535-0.533-0.731l-0.736-0.47
			c-0.505-0.323-0.801-0.66-0.801-1.276c0-0.787,0.596-1.291,1.523-1.291c0.449,0,0.82,0.084,1.15,0.254
			c-0.01,0.166-0.01,0.223-0.01,0.442c0,0.252,0,0.322,0.01,0.517h-0.27c-0.098-0.506-0.412-0.787-0.899-0.787
			c-0.434,0-0.748,0.276-0.748,0.66c0,0.338,0.23,0.563,0.604,0.801l0.596,0.385c0.568,0.373,0.891,0.73,0.891,1.291
			C98.145,63.59,97.473,64.11,96.488,64.11"/>
		<path clip-path="url(#SVGID_6_)" d="M102.129,63.921c-0.064,0.104-0.133,0.125-0.518,0.125c-0.238,0-0.471-0.014-0.712-0.021
			c-0.337-0.006-0.673-0.02-1.007-0.02c-0.338,0-0.674,0.006-1.01,0.02v-0.196c0.316-0.027,0.451-0.211,0.482-0.519
			c0.022-0.211,0.022-0.436,0.022-0.799v-1.986c0-0.372-0.022-0.54-0.078-0.688c-0.061-0.182-0.188-0.266-0.426-0.295v-0.195h3.281
			c0,0.203-0.01,0.414-0.01,0.617c0,0.168-0.006,0.328,0.01,0.498h-0.252c-0.051-0.541-0.279-0.687-1.115-0.687
			c-0.154,0-0.357,0.005-0.529,0.013c-0.012,0.274-0.02,0.365-0.02,0.772v0.812c0.107,0.01,0.191,0.01,0.314,0.01
			c0.73,0,0.957-0.106,0.998-0.486h0.254c-0.016,0.111-0.016,0.345-0.016,0.695c0,0.359,0.006,0.568,0.016,0.68h-0.254
			c-0.021-0.399-0.211-0.498-0.934-0.498c-0.125,0-0.252,0.007-0.379,0.007c0,0.442,0.008,0.885,0.008,1.327
			c0,0.294,0.047,0.392,0.217,0.435c0.105,0.027,0.268,0.035,0.486,0.035c0.754,0,1.023-0.17,1.186-0.744l0.273,0.055
			C102.315,63.38,102.205,63.786,102.129,63.921"/>
		<path clip-path="url(#SVGID_6_)" d="M19.326,52.018c-0.062,0.082-0.164,0.109-0.41,0.109c-0.336,0-0.662-0.021-0.998-0.027
			c-0.287-0.006-0.504-0.014-0.655-0.014c-0.205,0-0.703,0.008-0.847,0.014l-0.096,0.006l0.027-0.143
			c0.208-0.019,0.329-0.082,0.424-0.211c0.11-0.136,0.178-0.328,0.274-0.711c0.088-0.375,0.129-0.601,0.271-1.304l0.112-0.539
			c0.109-0.547,0.15-0.868,0.15-1.037c0-0.301-0.111-0.424-0.404-0.459l0.027-0.151c0.041,0.006,0.076,0.006,0.096,0.006
			c0.254,0,0.498,0.008,0.752,0.008c0.394,0,0.654-0.008,0.771-0.008c0.02,0,0.061,0,0.11-0.006l-0.028,0.151
			c-0.211,0.013-0.328,0.068-0.43,0.205c-0.171,0.216-0.267,0.511-0.519,1.83l-0.09,0.457c-0.109,0.56-0.15,0.752-0.183,1.004
			c-0.014,0.082-0.02,0.172-0.02,0.213c0,0.265,0.135,0.349,0.572,0.349c0.772,0,1.059-0.16,1.311-0.719l0.185,0.069
			C19.564,51.561,19.408,51.909,19.326,52.018"/>
		<path clip-path="url(#SVGID_6_)" d="M21.354,48.691c-0.213,0-0.348-0.129-0.348-0.328c0-0.244,0.178-0.416,0.422-0.416
			c0.205,0,0.334,0.123,0.334,0.32C21.761,48.514,21.591,48.691,21.354,48.691 M20.609,52.182c-0.139,0-0.227-0.076-0.227-0.199
			c0-0.061,0.022-0.17,0.055-0.321c0.09-0.361,0.211-0.853,0.281-1.113c0.094-0.355,0.137-0.599,0.137-0.697
			c0-0.088-0.043-0.129-0.117-0.129c-0.061,0-0.123,0.02-0.268,0.063l-0.047,0.013l-0.019-0.191
			c0.375-0.145,0.742-0.233,0.928-0.233c0.101,0,0.144,0.034,0.144,0.116c0,0.082-0.035,0.3-0.158,0.779l-0.102,0.404
			c-0.171,0.662-0.211,0.895-0.211,1.002c0,0.102,0.053,0.164,0.157,0.164c0.06,0,0.183-0.027,0.375-0.095l0.013,0.191
			C21.19,52.08,20.798,52.182,20.609,52.182"/>
		<path clip-path="url(#SVGID_6_)" d="M24.371,51.861c-0.268,0.233-0.582,0.328-1.067,0.328c-0.533,0-0.853-0.089-0.853-0.226
			c0-0.055,0.006-0.123,0.074-0.41l0.356-1.551c0.115-0.498,0.205-0.893,0.328-1.453c0.068-0.328,0.095-0.506,0.095-0.596
			c0-0.08-0.041-0.129-0.117-0.129c-0.047,0-0.197,0.035-0.301,0.067l-0.005-0.198l0.082-0.025c0.369-0.123,0.675-0.191,0.82-0.191
			c0.088,0,0.143,0.041,0.143,0.115c0,0.076-0.034,0.246-0.151,0.752l-0.203,0.902c-0.07,0.293-0.09,0.402-0.109,0.496
			c0.429-0.252,0.804-0.367,1.144-0.367c0.418,0,0.623,0.213,0.623,0.643C25.23,50.652,24.869,51.43,24.371,51.861 M24.363,49.668
			c-0.123,0-0.273,0.049-0.465,0.152c-0.197,0.1-0.342,0.209-0.416,0.313c-0.09,0.123-0.164,0.334-0.267,0.785
			c-0.102,0.424-0.149,0.691-0.149,0.785c0,0.129,0.149,0.205,0.422,0.205c0.281,0,0.52-0.131,0.697-0.381
			c0.274-0.39,0.479-1.013,0.479-1.457C24.664,49.813,24.56,49.668,24.363,49.668"/>
		<path clip-path="url(#SVGID_6_)" d="M26.719,51.013c-0.047,0-0.109,0-0.197-0.008c-0.022,0.123-0.028,0.227-0.028,0.33
			c0,0.346,0.123,0.532,0.362,0.532c0.218,0,0.492-0.115,0.894-0.369l0.074,0.232c-0.506,0.314-0.886,0.459-1.234,0.459
			c-0.424,0-0.656-0.254-0.656-0.711c0-1.127,0.763-2.103,1.644-2.103c0.432,0,0.684,0.197,0.684,0.539
			C28.262,50.543,27.594,51.013,26.719,51.013 M27.422,49.648c-0.328,0-0.676,0.451-0.846,1.113h0.069
			c0.634,0,1.111-0.336,1.111-0.771C27.756,49.798,27.608,49.648,27.422,49.648"/>
		<path clip-path="url(#SVGID_6_)" d="M31,50.256l-0.225-0.021c0.014-0.081,0.02-0.176,0.02-0.266c0-0.123-0.109-0.211-0.279-0.211
			c-0.102,0-0.205,0.062-0.293,0.162c-0.26,0.295-0.364,0.76-0.514,1.518L29.58,52.1c-0.26,0.013-0.328,0.021-0.594,0.054
			c0.069-0.259,0.118-0.464,0.17-0.697l0.151-0.635c0.101-0.429,0.152-0.697,0.152-0.839c0-0.17-0.043-0.247-0.125-0.247
			c-0.039,0-0.102,0.014-0.17,0.036l-0.172,0.054l-0.019-0.205c0.334-0.136,0.716-0.246,0.886-0.246c0.071,0,0.11,0.027,0.123,0.094
			c0.022,0.082,0.036,0.18,0.041,0.295c0.307-0.254,0.581-0.397,0.772-0.397c0.131,0,0.295,0.071,0.451,0.184
			C31.137,49.799,31.055,50.024,31,50.256"/>
		<path clip-path="url(#SVGID_6_)" d="M33.314,49.791l-0.566-0.012l-0.286,1.399c-0.076,0.361-0.082,0.463-0.082,0.519
			c0,0.094,0.047,0.151,0.135,0.151c0.049,0,0.151-0.028,0.315-0.077l0.068-0.019l0.021,0.199c-0.355,0.143-0.724,0.238-0.921,0.238
			c-0.145,0-0.233-0.068-0.233-0.199c0-0.117,0.026-0.287,0.082-0.498c0.061-0.238,0.108-0.435,0.164-0.705l0.211-1.008
			l-0.361,0.006l0.047-0.219c0.465-0.082,0.621-0.451,0.752-0.847l0.328-0.069l-0.172,0.807l0.566-0.008L33.314,49.791z"/>
		<path clip-path="url(#SVGID_6_)" d="M35.413,48.951l-0.219-0.178l0.832-0.941l0.615,0.148L35.413,48.951z M34.652,51.013
			c-0.047,0-0.107,0-0.197-0.008c-0.02,0.123-0.026,0.227-0.026,0.33c0,0.346,0.121,0.532,0.36,0.532
			c0.218,0,0.492-0.115,0.894-0.369l0.076,0.232c-0.506,0.314-0.886,0.459-1.236,0.459c-0.424,0-0.656-0.254-0.656-0.711
			c0-1.127,0.765-2.103,1.646-2.103c0.432,0,0.684,0.197,0.684,0.539C36.197,50.543,35.527,51.013,34.652,51.013 M35.357,49.648
			c-0.328,0-0.676,0.451-0.846,1.113h0.067c0.634,0,1.113-0.336,1.113-0.771C35.691,49.798,35.542,49.648,35.357,49.648"/>
		<path clip-path="url(#SVGID_6_)" d="M47.145,47.094l-0.219-0.178l0.834-0.943l0.621,0.15L47.145,47.094z M48.441,48.549h-0.197
			c0.006-0.076,0.013-0.104,0.013-0.15c0-0.377-0.246-0.508-0.927-0.508c-0.225,0-0.446,0-0.668,0.021
			c-0.145,0.569-0.242,1.059-0.358,1.668h0.254c0.436,0,0.621-0.008,0.778-0.035c0.251-0.047,0.402-0.197,0.478-0.471h0.184
			c-0.094,0.405-0.211,0.977-0.26,1.325h-0.184c0.008-0.047,0.014-0.088,0.014-0.116c0-0.293-0.186-0.39-0.746-0.39
			c-0.332,0-0.455,0.008-0.58,0.015c-0.033,0.17,0,0.02-0.155,0.807c-0.076,0.381-0.103,0.621-0.103,0.742
			c0,0.24,0.123,0.303,0.58,0.303c0.861,0,1.127-0.139,1.393-0.725l0.172,0.069c-0.153,0.449-0.315,0.81-0.411,0.927
			c-0.068,0.075-0.156,0.096-0.443,0.096c-0.24,0-0.484-0.006-0.725-0.014c-0.314-0.007-0.634-0.013-0.949-0.013
			c-0.32,0-0.637,0.006-0.957,0.006l0.027-0.143c0.206-0.019,0.331-0.082,0.424-0.211c0.11-0.137,0.18-0.328,0.274-0.711
			c0.088-0.383,0.117-0.539,0.273-1.305l0.11-0.539c0.109-0.533,0.15-0.867,0.15-1.037c0-0.3-0.109-0.423-0.402-0.459l0.027-0.15
			h3.105C48.559,47.86,48.488,48.227,48.441,48.549"/>
		<path clip-path="url(#SVGID_6_)" d="M51.814,49.785l-0.463-0.006c0.08,0.141,0.11,0.25,0.11,0.408
			c0,0.629-0.526,1.113-1.207,1.113c-0.131,0-0.229-0.013-0.369-0.052c-0.172,0.099-0.227,0.148-0.227,0.209
			c0,0.076,0.074,0.111,0.377,0.205l0.545,0.17c0.547,0.172,0.812,0.336,0.812,0.732c0,0.725-0.716,1.291-1.632,1.291
			c-0.75,0-1.209-0.355-1.209-0.935c0-0.534,0.341-0.788,0.902-0.93c-0.342-0.123-0.416-0.178-0.416-0.293
			c0-0.151,0.197-0.336,0.607-0.561c-0.213-0.15-0.312-0.349-0.312-0.623c0-0.646,0.517-1.138,1.199-1.138
			c0.176,0,0.309,0.021,0.459,0.074h0.902L51.814,49.785z M50.511,49.634c-0.369,0-0.667,0.389-0.667,0.854
			c0,0.32,0.181,0.539,0.449,0.539c0.363,0,0.656-0.375,0.656-0.84C50.949,49.845,50.777,49.634,50.511,49.634 M50.615,52.4
			c-0.234-0.088-0.512-0.186-0.801-0.268c-0.47,0.118-0.799,0.465-0.799,0.864c0,0.367,0.317,0.613,0.807,0.613
			c0.596,0,1.139-0.404,1.139-0.84C50.961,52.605,50.859,52.494,50.615,52.4"/>
		<path clip-path="url(#SVGID_6_)" d="M54.382,52.189c-0.125,0-0.166-0.076-0.226-0.412c-0.504,0.287-0.873,0.418-1.236,0.418
			c-0.411,0-0.649-0.213-0.649-0.586c0-0.361,0.176-0.875,0.451-1.299c0.367-0.574,0.826-0.935,1.524-0.935
			c0.306,0,0.586,0.055,0.881,0.129l-0.036,0.109c-0.246,0.785-0.423,1.652-0.423,1.947c0,0.184,0.041,0.288,0.123,0.288
			c0.054,0,0.199-0.042,0.369-0.104l0.021,0.213C54.833,52.086,54.497,52.189,54.382,52.189 M54.068,49.66
			c-0.273,0-0.545,0.207-0.777,0.588c-0.262,0.418-0.446,0.971-0.446,1.332c0,0.211,0.102,0.328,0.274,0.328
			c0.252,0,0.695-0.227,0.865-0.396c0.098-0.094,0.152-0.233,0.221-0.493c0.109-0.416,0.211-0.804,0.273-1.255
			C54.326,49.695,54.184,49.66,54.068,49.66"/>
		<path clip-path="url(#SVGID_6_)" d="M57.408,48.172c-0.227,0.908-0.451,1.92-0.672,2.885c-0.068,0.312-0.101,0.517-0.101,0.619
			c0,0.101,0.048,0.15,0.152,0.15c0.068,0,0.187-0.027,0.373-0.082l0.016,0.192c-0.352,0.136-0.772,0.254-0.957,0.254
			c-0.131,0-0.206-0.077-0.206-0.207c0-0.094,0.022-0.217,0.124-0.647c0.21-0.902,0.443-1.867,0.63-2.727
			c0.079-0.396,0.12-0.593,0.12-0.656c0-0.08-0.041-0.121-0.114-0.121c-0.068,0-0.193,0.028-0.301,0.067l-0.015-0.206
			c0.347-0.123,0.73-0.216,0.92-0.216c0.097,0,0.144,0.041,0.144,0.115C57.521,47.66,57.496,47.818,57.408,48.172"/>
		<path clip-path="url(#SVGID_6_)" d="M59.1,48.691c-0.211,0-0.35-0.129-0.35-0.328c0-0.244,0.18-0.416,0.424-0.416
			c0.205,0,0.336,0.123,0.336,0.32C59.509,48.514,59.339,48.691,59.1,48.691 M58.354,52.182c-0.137,0-0.225-0.076-0.225-0.199
			c0-0.061,0.02-0.17,0.055-0.321c0.09-0.361,0.213-0.853,0.279-1.113c0.096-0.355,0.137-0.599,0.137-0.697
			c0-0.088-0.041-0.129-0.115-0.129c-0.061,0-0.123,0.02-0.268,0.063l-0.047,0.013l-0.021-0.191
			c0.379-0.145,0.746-0.233,0.932-0.233c0.103,0,0.14,0.034,0.14,0.116c0,0.082-0.031,0.3-0.156,0.779l-0.104,0.404
			c-0.17,0.662-0.211,0.895-0.211,1.002c0,0.102,0.055,0.164,0.159,0.164c0.06,0,0.183-0.027,0.373-0.095l0.015,0.191
			C58.936,52.08,58.546,52.182,58.354,52.182"/>
		<path clip-path="url(#SVGID_6_)" d="M61.787,49.791l-0.564-0.012l-0.29,1.399c-0.073,0.361-0.081,0.463-0.081,0.519
			c0,0.094,0.051,0.151,0.139,0.151c0.045,0,0.15-0.028,0.311-0.077l0.072-0.019l0.021,0.199c-0.359,0.143-0.727,0.238-0.926,0.238
			c-0.141,0-0.23-0.068-0.23-0.199c0-0.117,0.027-0.287,0.08-0.498c0.06-0.238,0.113-0.435,0.166-0.705l0.211-1.008l-0.361,0.006
			l0.045-0.219c0.467-0.082,0.623-0.451,0.752-0.847l0.33-0.069l-0.172,0.807l0.566-0.008L61.787,49.791z"/>
		<path clip-path="url(#SVGID_6_)" d="M63.883,48.951l-0.217-0.178l0.832-0.941l0.615,0.148L63.883,48.951z M63.127,51.013
			c-0.049,0-0.108,0-0.197-0.008c-0.021,0.123-0.029,0.227-0.029,0.33c0,0.346,0.123,0.532,0.361,0.532
			c0.221,0,0.492-0.115,0.895-0.369l0.078,0.232c-0.508,0.314-0.891,0.459-1.236,0.459c-0.426,0-0.656-0.254-0.656-0.711
			c0-1.127,0.766-2.103,1.645-2.103c0.43,0,0.682,0.197,0.682,0.539C64.668,50.543,64,51.013,63.127,51.013 M63.83,49.648
			c-0.326,0-0.676,0.451-0.848,1.113h0.068c0.635,0,1.115-0.336,1.115-0.771C64.166,49.798,64.012,49.648,63.83,49.648"/>
		<path clip-path="url(#SVGID_6_)" d="M76.822,48.541h-0.197c0.006-0.068,0.012-0.123,0.012-0.156c0-0.137-0.047-0.246-0.129-0.328
			c-0.131-0.125-0.369-0.172-0.887-0.172c-0.145,0-0.336,0.006-0.506,0.013c-0.125,0.561-0.232,1.1-0.355,1.682
			c0.129,0,0.258,0.008,0.391,0.008c0.756,0,0.906-0.07,1.051-0.514h0.182c-0.109,0.444-0.195,0.881-0.26,1.33h-0.189
			c0.008-0.047,0.014-0.088,0.014-0.113c0-0.117-0.047-0.227-0.129-0.289c-0.117-0.088-0.252-0.109-0.662-0.109
			c-0.217,0-0.279,0.007-0.461,0.015l-0.086,0.455c-0.131,0.657-0.176,0.965-0.176,1.157c0,0.279,0.123,0.41,0.4,0.443l-0.025,0.142
			L74.695,52.1c-0.051,0-0.351-0.006-0.609-0.006c-0.275,0-0.781,0-0.868,0.006l-0.12,0.005l0.031-0.142
			c0.203-0.02,0.326-0.082,0.423-0.211c0.11-0.137,0.183-0.328,0.271-0.711c0.1-0.389,0.133-0.596,0.275-1.305l0.107-0.539
			c0.109-0.541,0.15-0.867,0.15-1.037c0-0.301-0.107-0.424-0.4-0.459l0.027-0.15h3.031C76.947,47.859,76.877,48.213,76.822,48.541"
			/>
		<path clip-path="url(#SVGID_6_)" d="M79.146,50.256l-0.223-0.021c0.012-0.081,0.02-0.176,0.02-0.266
			c0-0.123-0.108-0.211-0.279-0.211c-0.102,0-0.204,0.062-0.293,0.162c-0.26,0.295-0.363,0.76-0.514,1.518L77.729,52.1
			c-0.258,0.013-0.33,0.021-0.594,0.054c0.066-0.259,0.113-0.464,0.17-0.697l0.15-0.635c0.102-0.429,0.15-0.697,0.15-0.839
			c0-0.17-0.043-0.247-0.123-0.247c-0.041,0-0.104,0.014-0.172,0.036l-0.17,0.054l-0.02-0.205c0.334-0.136,0.717-0.246,0.887-0.246
			c0.068,0,0.109,0.027,0.125,0.094c0.02,0.082,0.031,0.18,0.039,0.295c0.307-0.254,0.582-0.397,0.771-0.397
			c0.131,0,0.293,0.071,0.451,0.184C79.285,49.799,79.203,50.024,79.146,50.256"/>
		<path clip-path="url(#SVGID_6_)" d="M81.841,52.189c-0.12,0-0.163-0.076-0.224-0.412c-0.506,0.287-0.875,0.418-1.238,0.418
			c-0.406,0-0.646-0.213-0.646-0.586c0-0.361,0.178-0.875,0.451-1.299c0.367-0.574,0.826-0.935,1.52-0.935
			c0.311,0,0.59,0.055,0.885,0.129l-0.035,0.109c-0.248,0.785-0.424,1.652-0.424,1.947c0,0.184,0.039,0.288,0.123,0.288
			c0.053,0,0.197-0.042,0.367-0.104l0.021,0.213C82.293,52.086,81.957,52.189,81.841,52.189 M81.527,49.66
			c-0.271,0-0.547,0.207-0.779,0.588c-0.258,0.418-0.441,0.971-0.441,1.332c0,0.211,0.1,0.328,0.27,0.328
			c0.254,0,0.699-0.227,0.869-0.396c0.096-0.094,0.15-0.233,0.217-0.493c0.111-0.416,0.215-0.804,0.275-1.255
			C81.787,49.695,81.643,49.66,81.527,49.66"/>
		<path clip-path="url(#SVGID_6_)" d="M85.1,49.791l-0.566-0.012l-0.289,1.399c-0.072,0.361-0.082,0.463-0.082,0.519
			c0,0.094,0.049,0.151,0.139,0.151c0.047,0,0.15-0.028,0.314-0.077l0.068-0.019l0.02,0.199c-0.355,0.143-0.723,0.238-0.92,0.238
			c-0.145,0-0.232-0.068-0.232-0.199c0-0.117,0.025-0.287,0.082-0.498c0.059-0.238,0.107-0.435,0.162-0.705l0.211-1.008
			l-0.361,0.006l0.047-0.219c0.465-0.082,0.625-0.451,0.754-0.847l0.326-0.069l-0.17,0.807l0.564-0.008L85.1,49.791z"/>
		<path clip-path="url(#SVGID_6_)" d="M86.438,51.013c-0.047,0-0.106,0-0.197-0.008c-0.019,0.123-0.029,0.227-0.029,0.33
			c0,0.346,0.125,0.532,0.361,0.532c0.221,0,0.492-0.115,0.896-0.369l0.074,0.232c-0.506,0.314-0.887,0.459-1.236,0.459
			c-0.422,0-0.656-0.254-0.656-0.711c0-1.127,0.766-2.103,1.646-2.103c0.43,0,0.684,0.197,0.684,0.539
			C87.98,50.543,87.313,51.013,86.438,51.013 M87.143,49.648c-0.328,0-0.68,0.451-0.85,1.113h0.068c0.637,0,1.115-0.336,1.115-0.771
			C87.477,49.798,87.326,49.648,87.143,49.648"/>
		<path clip-path="url(#SVGID_6_)" d="M90.721,50.256l-0.227-0.021c0.014-0.081,0.02-0.176,0.02-0.266
			c0-0.123-0.109-0.211-0.279-0.211c-0.104,0-0.205,0.062-0.295,0.162c-0.258,0.295-0.361,0.76-0.512,1.518L89.299,52.1
			c-0.258,0.013-0.328,0.021-0.596,0.054c0.072-0.259,0.119-0.464,0.172-0.697l0.15-0.635c0.102-0.429,0.148-0.697,0.148-0.839
			c0-0.17-0.041-0.247-0.119-0.247c-0.043,0-0.104,0.014-0.17,0.036l-0.172,0.054l-0.021-0.205c0.334-0.136,0.718-0.246,0.887-0.246
			c0.066,0,0.109,0.027,0.125,0.094c0.02,0.082,0.033,0.18,0.039,0.295c0.307-0.254,0.582-0.397,0.771-0.397
			c0.131,0,0.295,0.071,0.451,0.184C90.855,49.799,90.773,50.024,90.721,50.256"/>
		<path clip-path="url(#SVGID_6_)" d="M93.441,52.189c-0.137,0-0.217-0.084-0.217-0.207c0-0.08,0.027-0.23,0.109-0.572l0.068-0.287
			c0.205-0.854,0.254-1.141,0.254-1.256c0-0.104-0.049-0.158-0.145-0.158c-0.115,0-0.307,0.07-0.512,0.191
			c-0.219,0.123-0.385,0.266-0.465,0.391c-0.064,0.101-0.111,0.279-0.193,0.64c-0.107,0.498-0.178,0.84-0.232,1.162
			c-0.266,0.02-0.332,0.028-0.6,0.061c0.137-0.514,0.238-0.936,0.34-1.408c0.104-0.463,0.145-0.682,0.145-0.805
			c0-0.156-0.047-0.232-0.15-0.232c-0.055,0-0.17,0.027-0.334,0.082l-0.012-0.192c0.326-0.131,0.682-0.224,0.844-0.224
			c0.15,0,0.201,0.087,0.201,0.41v0.054c0.518-0.295,1.049-0.464,1.418-0.464c0.227,0,0.316,0.054,0.316,0.191
			c0,0.143-0.043,0.367-0.188,0.922c-0.082,0.314-0.156,0.648-0.182,0.799c-0.041,0.199-0.063,0.322-0.063,0.394
			c0,0.104,0.053,0.158,0.15,0.158c0.063,0,0.191-0.027,0.354-0.087l0.02,0.199C94.008,52.08,93.598,52.189,93.441,52.189"/>
		<path clip-path="url(#SVGID_6_)" d="M96.314,48.691c-0.211,0-0.346-0.129-0.346-0.328c0-0.244,0.176-0.416,0.424-0.416
			c0.202,0,0.336,0.123,0.336,0.32C96.729,48.514,96.557,48.691,96.314,48.691 M95.574,52.182c-0.139,0-0.227-0.076-0.227-0.199
			c0-0.061,0.02-0.17,0.057-0.321c0.086-0.361,0.209-0.853,0.277-1.113c0.096-0.355,0.137-0.599,0.137-0.697
			c0-0.088-0.041-0.129-0.113-0.129c-0.064,0-0.125,0.02-0.27,0.063l-0.047,0.013l-0.021-0.191c0.377-0.145,0.746-0.233,0.928-0.233
			c0.104,0,0.145,0.034,0.145,0.116c0,0.082-0.033,0.3-0.156,0.779l-0.102,0.404c-0.174,0.662-0.213,0.895-0.213,1.002
			c0,0.102,0.057,0.164,0.156,0.164c0.063,0,0.184-0.027,0.377-0.095l0.014,0.191C96.152,52.08,95.761,52.182,95.574,52.182"/>
		<path clip-path="url(#SVGID_6_)" d="M99.006,49.791l-0.568-0.012l-0.285,1.399c-0.078,0.361-0.083,0.463-0.083,0.519
			c0,0.094,0.048,0.151,0.136,0.151c0.051,0,0.15-0.028,0.314-0.077l0.068-0.019l0.022,0.199c-0.354,0.143-0.726,0.238-0.923,0.238
			c-0.145,0-0.232-0.068-0.232-0.199c0-0.117,0.03-0.287,0.082-0.498c0.061-0.238,0.109-0.435,0.164-0.705l0.213-1.008l-0.363,0.006
			l0.047-0.219c0.465-0.082,0.621-0.451,0.752-0.847l0.33-0.069l-0.172,0.807l0.566-0.008L99.006,49.791z"/>
		<path clip-path="url(#SVGID_6_)" d="M101.102,48.951l-0.219-0.178l0.834-0.941l0.615,0.148L101.102,48.951z M100.346,51.013
			c-0.051,0-0.113,0-0.201-0.008c-0.021,0.123-0.027,0.227-0.027,0.33c0,0.346,0.125,0.532,0.365,0.532
			c0.217,0,0.49-0.115,0.893-0.369l0.074,0.232c-0.505,0.314-0.887,0.459-1.236,0.459c-0.422,0-0.652-0.254-0.652-0.711
			c0-1.127,0.766-2.103,1.645-2.103c0.43,0,0.682,0.197,0.682,0.539C101.887,50.543,101.219,51.013,100.346,51.013 M101.049,49.648
			c-0.33,0-0.678,0.451-0.848,1.113h0.066c0.636,0,1.113-0.336,1.113-0.771C101.381,49.798,101.23,49.648,101.049,49.648"/>
		<path clip-path="url(#SVGID_6_)" d="M69.084,50.918c0.459,0,0.83-0.371,0.83-0.83s-0.371-0.828-0.83-0.828
			c-0.457,0-0.83,0.369-0.83,0.828S68.627,50.918,69.084,50.918"/>
		<path clip-path="url(#SVGID_6_)" d="M40.629,50.918c0.459,0,0.828-0.371,0.828-0.83s-0.369-0.828-0.828-0.828
			c-0.457,0-0.828,0.369-0.828,0.828S40.172,50.918,40.629,50.918"/>
		<rect x="16.766" y="55.039" clip-path="url(#SVGID_6_)" width="85.169" height="0.322"/>
	</g>
	<g>
		<defs>
			<rect id="SVGID_7_" x="16.885" y="14.984" width="85.253" height="28.616"/>
		</defs>
		<clipPath id="SVGID_8_">
			<use xlink:href="#SVGID_7_"  overflow="visible"/>
		</clipPath>
		<path clip-path="url(#SVGID_8_)" fill="#004A99" d="M16.666,43.77c0.131-7.098,0-14.131,0.197-21.23
			c0.065-2.541-0.066-5.081-0.066-7.62c1.758-0.326,3.517-0.13,5.275-0.066c11.264,0,22.465-0.064,33.729,0
			c-0.78,0.391-1.694,0.717-2.278,1.434c-0.521,0.65-1.043,1.302-1.238,2.084c-0.848,0.521-1.367,1.302-1.824,2.084
			c-0.586,1.107-1.432,2.084-1.301,3.32c0.129,1.043,0.391,2.019,0.586,3.127c0.065,0.39,0.129,0.717,0.258,1.107
			c0.133,0.391,0,0.846,0.197,1.172c0.131,0.195,0.067,0.457,0.324,0.586v0.262c0.067,0.064,0.067,0.129,0.2,0.129v0.261
			c0.519,0.651,1.17,1.237,1.496,1.954c0.131,0.39-0.653,0.195-0.977,0.064c-0.652-0.324-1.043-0.846-1.562-1.301
			c0,0-0.065,0.065-0.065,0.129c0.258,0.455,1.235,1.043,0.715,1.367c-0.262,0.131-0.586-0.195-0.848,0.067
			c-0.064,0.131,0,0.259,0,0.39c-0.388-0.259-0.779-0.131-1.172-0.259c-0.257-0.067-0.326-0.588-0.65-0.588
			c-0.848-0.194-1.627-0.391-2.475-0.455c-1.171-0.131-2.279-0.327-3.451-0.131c-1.043,0.064-1.822,0.847-2.474,1.629v0.195
			c0.455,0.064,0.652-0.326,1.043-0.457c0.65-0.129,1.236-0.391,1.888-0.52c0.975-0.195,1.887-0.455,2.799-0.39
			c0.195,0,0.457-0.065,0.651,0c-1.172-0.065-2.213,0.324-3.321,0.65c-0.771,0.227-1.562,0.26-2.279,0.652
			c1.693-0.066,3.387,0.196,5.014,0.715c0.586,0.196,1.107,0.457,1.629,0.784c0.261,0.195,0.39,0.39,0.65,0.519
			c0.326,0.195,0.783,0.195,1.107,0.066h0.327c0.976-0.261,2.017-0.521,2.667-1.238c0,0.065,0.065,0.065,0.131,0.065
			c-0.193,0.521-0.193,1.107-0.586,1.562c0,0.067-0.064,0.197,0.065,0.262h0.131c-0.065,0-0.131,0-0.131,0.064
			c0,0.131,0.197,0,0.262,0.131c-0.327,0.065-0.653,0.131-0.848,0.391c0,0.066,0.131,0.066,0.195,0.066
			c-0.131,0.129-0.324,0.065-0.388,0.196c0,0,0.064,0.064,0.128,0.064c-0.064,0-0.128,0-0.128,0.064v0.196
			c-0.198,0-0.264,0.131-0.393,0.197c0.262,0.193,0.457,0,0.717,0c-0.717,0.258-1.303,0.65-2.018,0.846
			c-0.131,0,0,0.195-0.131,0.195c0.196,0.131,0.327-0.066,0.52-0.066c-0.908,0.523-1.822,0.976-2.799,1.564
			c0,0-0.129,0.129-0.129,0.26h-0.262c-0.13,0.064-0.066,0.262-0.195,0.39c0.326,0.196,0.715-0.259,0.912,0
			c0.065,0-0.131,0.065-0.262,0.065c-0.064,0-0.064,0.131-0.13,0.131h-0.194c-0.131,0.131-0.261,0.197-0.261,0.39
			c-0.129,0-0.258,0-0.325,0.129c1.432-0.193,2.93-0.064,4.299-0.779c1.039-0.521,2.018-1.236,2.863-2.15
			c0,0,0.065,0.066,0.065,0.13c-0.193,0.651-0.586,1.108-1.108,1.499c-0.39,0.195-0.65,0.521-0.976,0.65
			c-0.193,0.131-0.391,0.262-0.586,0.392c-2.408,0.846-5.273,0.456-7.357,2.084c0-0.064-0.067-0.064-0.131-0.064
			c-0.129,0.129-0.325,0.193-0.389,0.324c0,0.129,0.195,0.065,0.26,0.065c0.39-0.26,0.779-0.455,1.236-0.584
			c-0.521,0.259-1.043,0.648-1.562,0.779c-1.108,0.195-2.149,0.131-3.256,0c0.652-0.391,1.302-0.846,2.017-1.236
			c-0.193-0.131-0.388-0.131-0.584-0.131c-0.326,0.066-0.716-0.129-1.043,0c-0.976,0.455-2.279,0.326-2.798,1.367"/>
		<path clip-path="url(#SVGID_8_)" fill="#FFFFFF" d="M38.676,35.889c-0.199,0.051-0.391,0.197-0.324,0.326
			c0.193,0.262,0.584-0.064,0.91-0.064c-0.391,0.131-0.846,0.064-1.172,0.39c0.262,0.196,0.522,0.065,0.781,0.065
			c0,0.131,0.131,0.131,0.196,0.197c-0.325,0.129-0.584,0.389-0.651,0.586c-0.131,0.324-0.457,0.455-0.652,0.717v0.193
			c-0.65,0.588-1.367,0.977-1.889,1.694c0.067,0,0.067,0.066,0.067,0.13c-0.131,0.196-0.391,0.26-0.455,0.457
			c0,0.065,0,0.129,0.064,0.129c0.781-0.259,1.367-0.847,2.084-1.105c0.52-0.133,0.91-0.457,1.367-0.586
			c0.326-0.066,0.715-0.197,1.041-0.262c0,0.065,0,0.131,0.067,0.131h0.519c-0.064,0.131-0.324,0.065-0.26,0.131
			c0.196,0.193,0.586,0.129,0.846,0c0.195-0.131,0.391-0.131,0.652-0.131c0.065,0,0.065-0.131,0.065-0.195
			c0.195,0.064,0.326,0.064,0.519,0.064c1.565-0.326,3.063-0.65,4.496-1.367c-1.693-1.303-3.843-1.76-5.861-2.346
			c0.195,0,0.389,0.196,0.586,0c-0.324-0.259-0.717-0.129-1.043-0.324c0.065,0,0.195,0.065,0.262-0.066
			c-0.522-0.26-1.043-0.26-1.563-0.391c0.325-0.064,0.52-0.326,0.52-0.65c0-0.067-0.131-0.067-0.195-0.067
			c-0.782,0.391-1.301,1.108-1.627,1.955c0.457,0.26,0.976,0.065,1.431,0.129C39.262,35.825,38.936,35.825,38.676,35.889"/>
		<path clip-path="url(#SVGID_8_)" fill="#FFFFFF" d="M36.006,33.35c-0.664,0.705-1.367,1.369-2.213,1.824
			c-0.588,1.172-1.238,2.215-2.084,3.321c0,0.066,0.065,0.13,0.065,0.13c1.562-1.757,2.996-3.255,5.013-4.494
			c0.131-0.064-0.193,0.196,0.067,0.131c0.845-0.195,1.105-1.041,1.498-1.693c0.519-0.848,1.431-1.172,2.082-1.889
			c0,0.065,0,0.131-0.065,0.195c0.065,0.067,0.131,0.067,0.196,0.067c0.259-0.197,0.586-0.131,0.783-0.393
			c-0.524-0.193-1.174-0.26-1.696-0.064C38.285,31.137,37.113,32.177,36.006,33.35"/>
		<path clip-path="url(#SVGID_8_)" fill="#FFFFFF" d="M36.984,34.588c0.057-0.117,0.129-0.131,0.193-0.262
			c0-0.064,0-0.129-0.064-0.129c-0.26,0.065-0.455,0.327-0.52,0.586c0,0.065,0.065,0.065,0.129,0.065
			C36.854,34.783,36.918,34.719,36.984,34.588"/>
		<path clip-path="url(#SVGID_8_)" fill="#FFFFFF" d="M42.193,39.537c-0.262,0.131-0.719,0.131-0.783,0.455
			c-0.063,0.131,0.195,0.066,0.326,0.066c0.457-0.197,0.978,0,1.367-0.39c-0.131-0.131-0.324-0.065-0.455-0.26
			C42.518,39.342,42.322,39.471,42.193,39.537"/>
		<path clip-path="url(#SVGID_8_)" fill="#004A99" d="M49.289,43.055c0.402-0.09,0.781-0.326,1.172-0.457v0.131
			c0.976-0.391,1.691-1.238,2.67-1.563c0.064,0,0.195,0.129,0.328,0.065c0.584-0.522,1.234-1.108,2.082-0.977
			c0,0.065,0,0.129,0.064,0.129c0.067,0,0.131,0,0.131-0.064c-0.26,0.195-0.521,0.39-0.781,0.586c-0.064,0.066,0,0.13,0.066,0.13
			c0.325-0.13,0.52-0.39,0.844-0.521c-0.064,0.066-0.064,0.195-0.129,0.26c-1.236,0.914-2.148,1.955-3.127,3.062h-2.017
			c0-0.066,0-0.131-0.067-0.131c-2.277,0.196-4.49,0.131-6.769,0.131c1.301-0.197,2.603-0.586,3.906-0.717
			C48.184,43.119,48.705,43.186,49.289,43.055"/>
		<path clip-path="url(#SVGID_8_)" fill="#E63329" d="M74.945,39.732c0.154-0.471,0.326-0.977,0.062-1.434
			c-0.39-0.586,0.394-0.779,0.651-1.171c0.199-0.325-0.127-0.522-0.193-0.846c-0.064-0.131-0.326-0.067-0.458-0.262
			c0.458-0.195,1.175-0.586,0.851-1.172c-0.199-0.324-0.521-0.845-0.131-1.172c0.455-0.259,1.172-0.195,1.364-0.652
			c0.329-0.781-0.39-1.432-0.776-2.082c-0.199-0.393-0.457-0.652-0.721-1.043c-0.258-0.457-0.587-0.848-0.713-1.367
			c-0.195-0.522,0.064-0.977,0.064-1.498c0.062-0.977-0.195-1.953-0.457-2.932c-0.193-0.455-0.26-0.976-0.457-1.431
			c-0.066-0.262-0.129-0.522-0.324-0.782c-0.063-0.131-0.063-0.326,0-0.457c0.259-0.195,0.521-0.39,0.781-0.65
			c0.197-0.326,0.066-0.783-0.26-0.979c-0.455-0.193-0.391,0.457-0.717,0.586h-0.195c-0.064-0.193,0.064-0.26,0.195-0.39
			c0-0.065,0-0.196-0.064-0.196c-0.26,0-0.522-0.064-0.586-0.193c-0.65-0.912-1.564-1.369-2.541-1.76
			c0.264,0.065,0.521,0.131,0.783,0.131c0.457,0.065,0.977,0.065,1.365-0.131c0.326-0.129,0.392-0.65,0.521-0.976
			c0.131-0.26-0.064-0.653-0.195-0.848c-0.326-0.52-0.848-0.846-1.367-1.105h30.863c0.064,9.636-0.064,19.277-0.131,28.916
			c-12.176,0.195-24.352,0-36.528,0c0.392-1.303,1.108-2.542,2.282-3.387c0.258-0.131,0.584-0.196,0.91-0.262
			c1.107,0,2.213,0.326,3.32,0.457c0.131,0,0.26,0.065,0.393,0.129c0.389,0.066,0.844,0.066,1.236-0.064
			C74.229,40.58,74.75,40.318,74.945,39.732"/>
		<path clip-path="url(#SVGID_8_)" fill="#9D9D9C" d="M72.469,26.902c-0.383-0.096-0.715,0-1.108,0
			c-0.52,0.131-0.976,0.195-1.43,0.391c0.389-0.26,0.779-0.52,1.236-0.651c0.326-0.066,0.65-0.261,0.977-0.261
			c0.393-0.065,0.781-0.196,1.107-0.065c0.322,0.131,0.846,0.131,0.912,0.326c0.131,0.391-0.197,0.781-0.59,1.041
			c-0.063,0.131,0.199,0.196,0.199,0.326c-0.066,0.129-0.262,0.196-0.393,0.196c-0.129,0.064-0.26,0.259-0.391,0.39
			c0.131,0,0,0.196,0.131,0.196c-0.26,0.326,0.131,0.976-0.26,1.107c-0.456,0.131-0.976,0.131-1.5,0
			c0.264-0.064,0.587,0.065,0.783-0.195v-0.262c0-0.064-0.064-0.064-0.127-0.064c-0.069,0.064-0.133,0.064-0.133,0.064
			c0-0.129-0.131-0.26-0.197-0.26c-0.391,0.067-0.713-0.131-0.977-0.39c0.196-0.065,0.393-0.131,0.586-0.065
			c0.197,0,0.131-0.326,0.328-0.457h0.193c0.393-0.521,1.172-0.65,1.303-1.172C73.121,26.966,72.73,26.966,72.469,26.902"/>
	</g>
</g>
<g id="Calque_2">
	<path stroke="#000000" stroke-width="0.25" stroke-miterlimit="10" d="M25.902,114.166c-2.697,0-4.854-0.477-6.187-1.238v-19.99
		c1.427-0.729,3.458-1.236,5.965-1.236c6.6,0,9.455,4.537,9.455,11.074C35.136,109.28,32.502,114.166,25.902,114.166z
		 M25.775,94.334c-0.857,0-1.491,0.096-2.062,0.318v16.403c0.476,0.159,1.269,0.318,2.125,0.318c3.744,0,5.204-2.729,5.204-8.663
		C31.043,97.033,29.425,94.334,25.775,94.334z"/>
	<path stroke="#000000" stroke-width="0.25" stroke-miterlimit="10" d="M49.222,113.85l-6.188-9.9h-0.063v9.9h-3.966V92.938
		c1.364-0.697,3.458-1.236,5.965-1.236c5.427,0,8.061,2.537,8.061,6.632c0,3.3-2.38,5.553-5.838,5.774v0.063l6.505,9.68H49.222z
		 M44.97,94.018c-0.856,0-1.522,0.158-1.999,0.381v8.566c0.254,0.096,0.889,0.158,1.492,0.158c3.109,0,4.633-1.681,4.633-4.601
		C49.096,95.477,47.921,94.018,44.97,94.018z"/>
	<path stroke="#000000" stroke-width="0.25" stroke-miterlimit="10" d="M56.899,113.85V92.019h10.63v2.696h-6.602v6.602h5.871v2.664
		h-5.871v7.172h6.602v2.697H56.899z"/>
	<path stroke="#000000" stroke-width="0.25" stroke-miterlimit="10" d="M82.854,113.85l-1.682-5.617h-7.045l-1.744,5.617h-3.618
		L76,92.019h3.807l7.202,21.831H82.854z M78.348,98.207c-0.477-1.618-0.57-2.634-0.57-2.634h-0.064c0,0-0.096,1.016-0.602,2.634
		l-2.35,7.679H80.6L78.348,98.207z"/>
	<path stroke="#000000" stroke-width="0.25" stroke-miterlimit="10" d="M89.705,113.85V92.019h4.061v19.134h6.029v2.697H89.705z"/>
	<rect x="1.334" y="121.03" fill="none" width="118.999" height="36.333"/>
	<text transform="matrix(1 0 0 1 13.0322 129.8433)"><tspan x="0" y="0" font-family="'Calibri-Bold'" font-size="13px">PROVENCE-ALPES</tspan><tspan x="11.543" y="15.601" font-family="'Calibri-Bold'" font-size="13px">CÔTE D&apos;AZUR</tspan></text>
</g>
</svg>
