<?xml version="1.0" encoding="UTF-8" standalone="no"?>
<!-- Generator: Adobe Illustrator 24.2.3, SVG Export Plug-In . SVG Version: 6.00 Build 0)  -->

<svg
   version="1.1"
   id="Calque_1"
   x="0px"
   y="0px"
   viewBox="0 0 558.26099 558.26099"
   enable-background="new 0 0 612 792"
   xml:space="preserve"
   sodipodi:docname="logo_sit.svg"
   width="558.26099"
   height="558.26099"
   inkscape:version="1.1.1 (3bf5ae0d25, 2021-09-20)"
   xmlns:inkscape="http://www.inkscape.org/namespaces/inkscape"
   xmlns:sodipodi="http://sodipodi.sourceforge.net/DTD/sodipodi-0.dtd"
   xmlns="http://www.w3.org/2000/svg"
   xmlns:svg="http://www.w3.org/2000/svg"><defs
   id="defs29"><clipPath
     clipPathUnits="userSpaceOnUse"
     id="clipPath1126"><rect
       style="fill:#8f5c9e"
       id="rect1128"
       width="558.26099"
       height="558.26099"
       x="24.478001"
       y="30.739" /></clipPath></defs><sodipodi:namedview
   id="namedview27"
   pagecolor="#ffffff"
   bordercolor="#666666"
   borderopacity="1.0"
   inkscape:pageshadow="2"
   inkscape:pageopacity="0.0"
   inkscape:pagecheckerboard="0"
   showgrid="false"
   inkscape:zoom="1.0505051"
   inkscape:cx="145.16827"
   inkscape:cy="327.9375"
   inkscape:window-width="1920"
   inkscape:window-height="1017"
   inkscape:window-x="1912"
   inkscape:window-y="-8"
   inkscape:window-maximized="1"
   inkscape:current-layer="Calque_1"
   fit-margin-top="0"
   fit-margin-left="0"
   fit-margin-right="0"
   fit-margin-bottom="0" />

<path
   display="none"
   fill="#ffffff"
   stroke="#000000"
   stroke-miterlimit="10"
   d="M 504.352,560.318 H 51.650999 c -31.311,0 -56.6929996,-25.382 -56.6929996,-56.693 V 50.923 c 0,-31.311 25.3819996,-56.6930003 56.6929996,-56.6930003 H 504.352 c 31.311,0 56.693,25.3820003 56.693,56.6930003 v 452.701 c 0,31.311 -25.383,56.694 -56.693,56.694 z"
   id="path4" />



<g
   id="g1018"
   clip-path="url(#clipPath1126)"
   transform="translate(-24.478001,-30.739)"><rect
     x="24.478001"
     y="30.739"
     fill="#ffffff"
     stroke="#000000"
     stroke-miterlimit="10"
     width="558.26099"
     height="558.26099"
     id="rect2" /><g
     id="g12">
	<path
   fill="#46726b"
   d="m 94.589,335.298 c 3.03,5.997 7.055,10.853 12.075,14.568 5.015,3.72 10.905,6.474 17.675,8.273 6.765,1.798 13.765,2.698 21,2.698 4.9,0 10.15,-0.416 15.75,-1.259 5.6,-0.838 10.85,-2.456 15.75,-4.856 4.9,-2.394 8.98,-5.693 12.25,-9.892 3.265,-4.193 4.899,-9.532 4.899,-16.006 0,-6.953 -2.16,-12.589 -6.475,-16.906 -4.32,-4.316 -9.975,-7.913 -16.975,-10.791 -7,-2.877 -14.935,-5.396 -23.8,-7.554 -8.87,-2.158 -17.85,-4.552 -26.95,-7.194 -9.335,-2.394 -18.435,-5.333 -27.3,-8.812 -8.87,-3.474 -16.8,-7.97 -23.8,-13.489 -7,-5.513 -12.66,-12.41 -16.975,-20.683 -4.32,-8.273 -6.475,-18.283 -6.475,-30.035 0,-13.185 2.74,-24.64 8.225,-34.351 5.48,-9.712 12.655,-17.805 21.525,-24.28 8.865,-6.475 18.9,-11.269 30.1,-14.388 11.2,-3.114 22.4,-4.676 33.6,-4.676 13.065,0 25.604,1.501 37.625,4.496 12.015,3.001 22.689,7.857 32.025,14.568 9.329,6.716 16.739,15.287 22.225,25.718 5.479,10.431 8.225,23.082 8.225,37.948 h -53.2 c -0.47,-7.672 -2.045,-14.028 -4.725,-19.064 -2.685,-5.036 -6.245,-8.992 -10.675,-11.87 -4.435,-2.877 -9.51,-4.912 -15.225,-6.115 -5.72,-1.197 -11.96,-1.799 -18.725,-1.799 -4.435,0 -8.87,0.483 -13.3,1.439 -4.435,0.961 -8.46,2.642 -12.075,5.036 -3.62,2.4 -6.595,5.395 -8.925,8.992 -2.335,3.597 -3.5,8.155 -3.5,13.669 0,5.036 0.93,9.116 2.8,12.23 1.865,3.119 5.54,5.997 11.025,8.633 5.479,2.642 13.064,5.278 22.75,7.914 9.68,2.642 22.34,5.997 37.975,10.071 4.665,0.961 11.14,2.698 19.425,5.216 8.28,2.518 16.505,6.536 24.676,12.05 8.164,5.519 15.225,12.893 21.175,22.122 5.95,9.234 8.925,21.042 8.925,35.43 0,11.752 -2.221,22.661 -6.65,32.733 -4.435,10.072 -11.024,18.766 -19.774,26.078 -8.75,7.317 -19.601,13.011 -32.55,17.086 -12.95,4.075 -27.946,6.115 -44.976,6.115 -13.77,0 -27.125,-1.742 -40.075,-5.216 -12.95,-3.474 -24.385,-8.931 -34.3,-16.366 -9.92,-7.431 -17.795,-16.906 -23.625,-28.416 -5.835,-11.511 -8.635,-25.179 -8.4,-41.006 h 53.2 c 0,8.633 1.515,15.95 4.55,21.941 z"
   id="path6" />
	<path
   fill="#46726b"
   d="M 337.881,257.885 V 404.361 H 282.932 V 257.885 Z"
   id="path8" />
	<path
   fill="#46726b"
   d="m 363.383,185.808 v -49.569 h 204.75 v 49.569 h -74.899 v 218.553 h -54.95 V 185.808 Z"
   id="path10" />
</g><g
     id="g20">
	<g
   id="g18">
		<path
   fill="#46726b"
   d="m 310.407,136.057 c -19.777,0 -35.738,16.082 -35.738,35.859 0,0.241 0,0.459 0,0.7 0,1.28 0.241,4.274 1.159,8.548 2.318,10.746 9.031,21.974 28.566,40.133 0.121,0.121 0.121,0.121 0.241,0.241 1.859,1.618 3.695,3.357 5.771,5.216 2.077,-1.859 3.936,-3.574 5.771,-5.216 0.121,-0.121 0.121,-0.121 0.241,-0.241 19.535,-18.159 26.369,-29.387 28.566,-40.133 0.918,-4.274 1.159,-7.293 1.159,-8.548 0,-0.241 0,-0.459 0,-0.7 0.002,-19.777 -15.959,-35.859 -35.736,-35.859 z m 0,49.164 c -7.413,0 -13.305,-6.013 -13.305,-13.305 0,-7.292 5.892,-13.305 13.305,-13.305 7.413,0 13.305,6.013 13.305,13.305 0,7.292 -5.892,13.305 -13.305,13.305 z"
   id="path14" />
		<path
   fill="#46726b"
   d="m 318.279,221.418 c -1.859,1.618 -5.771,5.554 -7.872,7.293 -2.077,-1.859 -6.013,-5.675 -7.872,-7.293 -9.611,0.58 -25.21,2.656 -25.21,5.216 0,3.018 20.694,5.433 33.082,5.433 12.388,0 33.082,-2.439 33.082,-5.433 0,-2.56 -15.624,-4.637 -25.21,-5.216 z"
   id="path16" />
	</g>
</g><circle
     fill="#e7811e"
     stroke="#ffffff"
     stroke-width="5"
     stroke-miterlimit="10"
     cx="310.40701"
     cy="171.916"
     r="18.594"
     id="circle22" /><text
     transform="translate(33.5217,485.4785)"
     fill="#46726b"
     font-family="HelveticaNeue-Bold"
     font-size="60px"
     letter-spacing="4"
     id="text24">PNR Région Sud</text></g>
</svg>
